G04 DipTrace 2.4.0.2*
%INSSPS.GTL*%
%MOIN*%
%ADD13C,0.03*%
%ADD14C,0.1*%
%ADD15C,0.0591*%
%ADD16C,0.02*%
%ADD17C,0.013*%
%ADD18C,0.0945*%
%ADD19C,0.0118*%
%ADD20C,0.04*%
%ADD21C,0.0157*%
%ADD22C,0.0161*%
%ADD23C,0.075*%
%ADD24C,0.093*%
%ADD25C,0.025*%
%ADD27C,0.0394*%
%ADD29R,0.0354X0.0236*%
%ADD30R,0.126X0.063*%
%ADD31R,0.063X0.0354*%
%ADD32R,0.0276X0.0512*%
%ADD33R,0.0591X0.0591*%
%ADD34C,0.0591*%
%ADD35R,0.2244X0.0787*%
%ADD36R,0.063X0.098*%
%ADD37R,0.098X0.063*%
%ADD38R,0.0512X0.0276*%
%ADD39R,0.0709X0.0709*%
%ADD40C,0.0709*%
%ADD41C,0.12*%
%ADD42C,0.06*%
%ADD43R,0.075X0.075*%
%ADD45R,0.0354X0.0315*%
%ADD46R,0.0945X0.0945*%
%ADD47C,0.0945*%
%ADD48R,0.0787X0.0236*%
%ADD49R,0.0236X0.0787*%
%ADD50C,0.25*%
%ADD52R,0.0531X0.0157*%
%ADD53R,0.0472X0.0598*%
%ADD55R,0.1555X0.0591*%
%ADD56R,0.3819X0.4094*%
%ADD58R,0.1043X0.1181*%
%ADD59R,0.0472X0.0161*%
%ADD61R,0.06X0.02*%
%ADD63R,0.0571X0.0118*%
%ADD64R,0.0591X0.1555*%
%ADD65R,0.4094X0.3819*%
%FSLAX44Y44*%
G04*
G70*
G90*
G75*
G01*
%LNTop*%
%LPD*%
X36716Y23280D2*
D14*
Y22216D1*
X36100Y21600D1*
X31236D1*
X25916D1*
X23400D1*
X21600Y19800D1*
X20195D1*
D15*
X20300D1*
X25916Y23280D2*
D14*
Y21600D1*
X31236Y23280D2*
Y21600D1*
X17350Y23850D2*
D16*
Y22475D1*
X16563Y21688D1*
Y21537D1*
X18300Y19800D1*
X20300D1*
X6438Y21688D2*
D17*
X7288D1*
X7900Y22300D1*
Y23800D1*
X7850Y23850D1*
X20300Y19800D2*
Y17800D1*
X20200Y17700D1*
Y16300D1*
X20150Y16250D1*
X22250Y9375D2*
D13*
X21250D1*
X20875Y9750D1*
Y10875D1*
X20750Y11000D1*
X16000D1*
X15750Y10750D1*
Y9000D1*
X15500Y8750D1*
X15003D1*
X15000Y8753D1*
Y10125D1*
X9625Y14125D2*
D17*
Y14750D1*
X9750Y14875D1*
X10365D1*
X10370Y14880D1*
X40200Y15615D2*
Y16250D1*
Y15615D2*
X40585D1*
X40850Y15350D1*
Y11500D1*
X39950Y10600D1*
X34350D1*
X33950Y11000D1*
X26850D1*
X26250Y11600D1*
X18500D1*
X18350Y11450D1*
X15300D1*
X15000Y11150D1*
Y10125D1*
Y8753D2*
X13347D1*
X12300Y9800D1*
X10350Y14250D2*
Y14860D1*
X10370Y14880D1*
X58700Y26146D2*
D18*
Y27200D1*
D14*
X57600Y28300D1*
X52086D1*
X45934D1*
X21900D1*
X21000Y27400D1*
Y26600D1*
X20500Y26100D1*
X20331D1*
D15*
X20300Y26069D1*
X52200Y26146D2*
D18*
Y27118D1*
D14*
Y28186D1*
X52086Y28300D1*
X45700Y26146D2*
D18*
Y27118D1*
D14*
Y28066D1*
X45934Y28300D1*
X11990Y23850D2*
D17*
Y24190D1*
X12650Y24850D1*
Y25840D1*
X12660Y25850D1*
X20300Y26069D2*
X19031D1*
X18550Y26550D1*
Y27550D1*
X18350Y27750D1*
X13450D1*
X12650Y26950D1*
Y25860D1*
X12660Y25850D2*
Y27090D1*
X12000Y27750D1*
X3850D1*
X3150Y27050D1*
Y25860D1*
X3160Y25850D1*
X10937Y21688D2*
Y21937D1*
X12000Y23000D1*
Y23840D1*
X11990Y23850D1*
X812Y21688D2*
Y22212D1*
X1350Y22750D1*
X2300D1*
X2500Y22950D1*
Y23840D1*
X2490Y23850D1*
X22700Y23000D2*
X22450D1*
X21700Y23750D1*
Y24669D1*
X20300Y26069D1*
X22375Y4250D2*
D13*
X21250D1*
X20875Y3875D1*
Y1125D1*
X20375Y625D1*
X15250D1*
X15000Y875D1*
Y2125D1*
X12750Y1750D2*
X13375D1*
X13750Y2125D1*
X15000D1*
X7370Y15620D2*
D17*
X7870D1*
X8125Y15875D1*
Y16251D1*
X42200Y18625D2*
Y17876D1*
X42326Y17750D1*
X15000Y2125D2*
X15725D1*
X16000Y2400D1*
Y5450D1*
X16450Y5900D1*
X28850D1*
X31150Y8200D1*
X33050D1*
X34850Y10000D1*
X40050D1*
X41200Y11150D1*
Y17625D1*
X42200Y18625D1*
X15000Y2125D2*
X14925D1*
X14400Y2650D1*
Y7550D1*
X13700Y8250D1*
X12900D1*
X11700Y9450D1*
X6900Y15650D2*
X7340D1*
X7370Y15620D1*
X4375Y3091D2*
Y3125D1*
X4500Y3250D1*
X4945D1*
Y3750D1*
Y4195D1*
X5125Y4375D1*
Y5003D1*
X5186Y5064D1*
X4061D1*
X4000Y5125D1*
X13482Y12506D2*
D19*
X13956D1*
D17*
X14100Y12650D1*
X14250D1*
X14800D1*
X15006Y12856D1*
X15483D1*
X15502Y12875D1*
X13000Y16000D2*
Y15125D1*
X13250Y14875D1*
X13750D1*
X13805Y14820D1*
X13482Y12506D2*
D19*
X13106D1*
D17*
X13000Y12400D1*
Y11400D1*
X12995Y11395D1*
X1375Y13123D2*
X2375D1*
X3125Y13125D2*
X3500D1*
X3625Y13250D1*
Y13982D1*
X3593Y14015D1*
X4818Y12869D2*
X4369D1*
X4250Y12750D1*
Y12500D1*
X4375Y12375D1*
X4800D1*
X4818Y12357D1*
Y12869D2*
X5244D1*
X5375Y13000D1*
Y14250D1*
X5125Y14500D1*
X3750D1*
X3625Y14375D1*
Y14047D1*
X3593Y14015D1*
X3125Y10875D2*
Y11500D1*
X3250Y11625D1*
X3578D1*
X3593Y11640D1*
X4818Y10107D2*
X4393D1*
X4300Y10200D1*
Y10600D1*
X4000Y10900D1*
Y11232D1*
X3593Y11640D1*
X4818Y10619D2*
X4300D1*
Y10600D1*
X5186Y5064D2*
Y6464D1*
X5150Y6500D1*
X2950Y14000D2*
X3578D1*
X3593Y14015D1*
X2950Y14000D2*
X2650D1*
X2350Y13700D1*
Y13148D1*
X2375Y13123D1*
X2950Y11700D2*
X3532D1*
X3593Y11640D1*
X5150Y6500D2*
Y7100D1*
X6450Y8400D1*
X9900D1*
X12100Y10600D1*
X12600D1*
X12950Y10950D1*
Y11350D1*
X12995Y11395D1*
X13000Y16000D2*
X12700D1*
X12650Y15950D1*
Y14350D1*
X13600Y13400D1*
X14100D1*
X14250Y13250D1*
Y12650D1*
X8500Y3503D2*
D13*
X11628D1*
X11750Y3625D1*
Y5805D1*
X7055Y3750D2*
D17*
X7750D1*
X8000Y3500D1*
X8497D1*
X8500Y3503D1*
X7055Y2250D2*
X7625D1*
X7750Y2375D1*
Y3125D1*
X7875Y3250D1*
X8247D1*
X8500Y3503D1*
Y4875D2*
Y3503D1*
X11750Y12900D2*
D19*
X12125D1*
D17*
X12250Y12775D1*
Y12483D1*
Y11396D1*
X12251Y11395D1*
X11750Y12506D2*
D19*
X12100D1*
D17*
X12227D1*
X12250Y12483D1*
X11445Y13820D2*
X12070D1*
X12250Y14000D1*
Y15994D1*
X12256Y16000D1*
X3125Y12869D2*
X3744D1*
X4250Y13375D1*
Y13928D1*
X4337Y14015D1*
X4818Y13125D2*
Y13807D1*
X4625Y14000D1*
X4351D1*
X4337Y14015D1*
X7370Y14876D2*
X8126D1*
X8875Y15625D1*
X10369D1*
X10370Y15624D1*
X64850Y13150D2*
Y11975D1*
X63500Y10625D1*
X53362Y16750D2*
Y17453D1*
X53315Y17500D1*
X54460D2*
X53900D1*
X53315D2*
X53900D1*
X43325Y17890D2*
Y18500D1*
X41456Y18625D2*
X40875D1*
X39200Y18391D2*
X39950D1*
X40200Y14871D2*
Y14250D1*
X27950Y16748D2*
Y17494D1*
X27944Y17500D1*
X28600D1*
X29201Y17495D2*
X28600Y17500D1*
X13063Y21688D2*
D20*
X14437D1*
X2938D2*
X4312D1*
X12256Y16000D2*
D16*
X11850D1*
X12251Y11395D2*
X11850D1*
X7876Y10124D2*
X7274D1*
X7370Y14876D2*
Y14580D1*
X7500Y14450D1*
X4337Y14015D2*
X4865D1*
X4950Y14100D1*
X4337Y11640D2*
Y11913D1*
X4050Y12200D1*
X4818Y10875D2*
D21*
Y11054D1*
D16*
Y11158D1*
X4337Y11640D1*
X2938Y21688D2*
D20*
Y20800D1*
X1850D1*
X14437Y21688D2*
Y20963D1*
X14750Y20650D1*
X15450D1*
X16628Y14250D2*
D16*
X17400D1*
X15502Y12125D2*
X15025D1*
X15000Y12150D1*
Y7375D2*
Y6450D1*
Y3503D2*
Y4500D1*
X10750Y1750D2*
X10000D1*
X8500Y2125D2*
Y1200D1*
X7055Y2750D2*
D22*
X6719D1*
D16*
X6250D1*
X6000Y3000D1*
Y1850D1*
X6564Y5064D2*
X7264D1*
X7300Y5100D1*
X33305Y1004D2*
X34654D1*
X33250Y10066D2*
Y10550D1*
X18320Y3250D2*
X18400D1*
X20400Y5250D1*
X22300D1*
X22250Y7375D2*
Y6600D1*
X28569Y8375D2*
X30075D1*
X30100Y8350D1*
X28569Y2875D2*
X29975D1*
X30000Y2900D1*
X7545Y19795D2*
D17*
X8332D1*
X8377Y19750D1*
X7545Y19795D2*
D16*
X4095D1*
X3500Y19200D1*
Y18375D1*
X3520Y18355D1*
D17*
Y15820D1*
X3500Y15800D1*
X9125Y19750D2*
X9875D1*
X9955Y19670D1*
D16*
X11070D1*
X11100Y19700D1*
X11445Y14320D2*
X10920D1*
X10800Y14200D1*
X9955Y19080D2*
X10580D1*
X10700Y19200D1*
X13135D1*
X13980Y18355D1*
X16145D1*
X16250Y18250D1*
X7376Y17374D2*
D17*
Y17626D1*
X7500Y17750D1*
Y18250D1*
Y19159D1*
X7545Y19205D1*
X8605D1*
X8750Y19350D1*
Y24750D1*
X8600Y24900D1*
X2770D1*
X1820Y25850D1*
X8624Y12374D2*
Y13249D1*
X8623Y13250D1*
Y14123D1*
X8625Y14125D1*
X7875Y13250D2*
X8000D1*
X8125Y13375D1*
Y14125D1*
X7250D1*
X6875Y13750D1*
X7376Y16626D2*
X6751D1*
X6500Y16375D1*
Y14125D1*
X6875Y13750D1*
X9999Y18250D2*
D16*
X11911D1*
X12016Y18355D1*
X11445Y14820D2*
X11080D1*
X10900Y15000D1*
Y17239D1*
X12016Y18355D1*
X5484D2*
D17*
Y15866D1*
X5500Y15850D1*
X45825Y13377D2*
X47001D1*
Y13375D1*
X48200D1*
X46950Y12250D2*
Y13326D1*
X47001Y13377D1*
X48200Y13375D2*
X47825Y13750D1*
Y15000D1*
X45825Y14125D2*
Y14250D1*
X46075Y14500D1*
Y15000D1*
X47413Y13749D2*
Y14037D1*
X47325Y14125D1*
X45825D1*
X37237Y13751D2*
X38324D1*
X38325Y13750D1*
Y15375D1*
X38075Y15625D1*
Y16750D1*
X38575Y17250D1*
X39200D1*
X40200D1*
X44450Y13750D2*
X46611D1*
X46612Y13751D1*
X42326Y16750D2*
X43200D1*
X43201Y16749D1*
X43325D1*
X44151D1*
X44450Y16450D1*
Y15625D1*
Y13750D2*
X42075D1*
X41575Y14250D1*
Y16625D1*
X41700Y16750D1*
X42326D1*
X34805Y13769D2*
X36344D1*
X36450Y13875D1*
Y14125D1*
Y15000D1*
X35593Y13395D2*
X36100D1*
X36432D1*
X36450Y13377D1*
X36300Y12500D2*
X36100D1*
Y13395D1*
X35593D2*
X34430D1*
X34325Y13500D1*
Y14625D1*
X34700Y15000D1*
X27950Y16000D2*
X29163D1*
X23554Y26146D2*
D13*
Y26854D1*
X23900Y27200D1*
X29000D1*
X30054Y26146D1*
Y26354D1*
X30900Y27200D1*
X35500D1*
X36554Y26146D1*
X28950Y20248D2*
X29448D1*
X30100Y20900D1*
X23554Y26146D2*
D17*
Y24304D1*
X23550Y24300D1*
X24075Y20000D2*
Y19625D1*
X24325Y19375D1*
X28825D1*
X28950Y19500D1*
X27163Y16374D2*
X29950D1*
X24075Y15000D2*
X24883D1*
X25825D1*
X24950Y14000D2*
Y14933D1*
X24883Y15000D1*
X27163Y16374D2*
Y17463D1*
X27200Y17500D1*
X25825Y15000D2*
Y15625D1*
X26575Y16375D1*
X27162D1*
X27163Y16374D1*
X25825Y20000D2*
X27700D1*
X27825Y19875D1*
X28162D1*
X28163Y19874D1*
X30076D1*
X30450Y19500D1*
X34200D1*
X34700Y20000D1*
X63500Y5625D2*
X61575D1*
X60900Y6300D1*
X63500Y5625D2*
D24*
X61575D1*
X60900Y6300D1*
Y20800D1*
X60200Y21500D1*
X43900D1*
X40800Y24600D1*
X38700D1*
X32096D1*
X26200D1*
X25700Y25100D1*
Y26146D1*
X32200D2*
Y24704D1*
X32096Y24600D1*
X38700Y26146D2*
Y24600D1*
X35593Y14143D2*
D17*
Y17793D1*
X35650Y17850D1*
Y18850D2*
Y19050D1*
X34700Y20000D1*
X31200Y15000D2*
X32075D1*
X32950D1*
X32075Y14000D2*
Y15000D1*
X40200Y16750D2*
X39750D1*
X39300Y16300D1*
Y13200D1*
X37800Y11700D1*
X35300D1*
X33500Y13500D1*
Y14800D1*
X33300Y15000D1*
X32950D1*
X3125Y12613D2*
X2762D1*
X2625Y12750D1*
X1750D1*
X1375Y12375D1*
Y10000D1*
X750Y9375D1*
X3125Y10363D2*
X2762D1*
X2625Y10500D1*
Y11875D1*
X2875Y12125D1*
X3500D1*
X3625Y12250D1*
Y12500D1*
X3500Y12625D1*
X3137D1*
X3125Y12613D1*
X13482Y12900D2*
D19*
Y13024D1*
D17*
Y13118D1*
X13250Y13350D1*
X10700D1*
X10250Y12900D1*
Y10650D1*
X9100Y9500D1*
X4150D1*
X3850Y9800D1*
Y10200D1*
X3700Y10350D1*
X3138D1*
X3125Y10363D1*
X29163Y16748D2*
X29698D1*
X29950Y17000D1*
Y17490D1*
X29945Y17495D1*
Y18505D1*
X29825Y18625D1*
X29945Y17495D2*
X33745D1*
X34650Y18400D1*
X36800D1*
X37500Y17700D1*
X40150D1*
X40200Y17750D1*
X9251Y18250D2*
X8248D1*
X4818Y10363D2*
X5363D1*
X6000Y11000D1*
X6875D1*
X7877D1*
X7876Y12374D2*
X6876D1*
X6875Y12375D1*
X4818Y12613D2*
X5762D1*
X6000Y12375D1*
X6875D1*
X17250Y12250D2*
X16375D1*
X16250Y12125D1*
Y12875D1*
Y13250D1*
X16000Y13500D1*
X15500D1*
X15250Y13750D1*
Y14250D1*
X13805Y13820D2*
X14820D1*
X15250Y14250D1*
X11445Y15320D2*
Y16320D1*
X11750Y16625D1*
X15750D1*
X16250Y16125D1*
Y15250D1*
X15250Y14250D1*
X53362Y16002D2*
X54450D1*
X54325Y19500D2*
X57781D1*
X58281Y20000D1*
X52575Y16376D2*
X55237D1*
X52571Y17500D2*
Y16380D1*
X52575Y16376D1*
X58281Y15000D2*
X57514D1*
X56575D1*
X57450Y14125D2*
Y14936D1*
X57514Y15000D1*
X56575D2*
Y16125D1*
X56325Y16375D1*
X55238D1*
X56575Y20000D2*
X55075D1*
X54827Y20248D1*
X54325D1*
X47825Y20000D2*
Y16775D1*
X48200Y16400D1*
X51200D1*
X52200Y15400D1*
Y14200D1*
X50900Y12900D1*
X50100D1*
X48900Y14100D1*
X48223D1*
X48200Y14123D1*
X63500Y26875D2*
D24*
Y25800D1*
X62200Y24500D1*
X61200D1*
X56257D1*
X51020D1*
X46300D1*
X45800Y24000D1*
Y23300D1*
X45820Y23280D1*
X51220D2*
Y24300D1*
X51020Y24500D1*
X56520Y23280D2*
Y24237D1*
X56257Y24500D1*
X61200Y23000D2*
D17*
Y24500D1*
X43554Y26146D2*
D13*
X44400Y25300D1*
X49209D1*
X50054Y26146D1*
X53538Y19874D2*
X52726D1*
X52700Y19900D1*
X43554Y26146D2*
D17*
Y24204D1*
X43400Y24050D1*
X54450Y16750D2*
X54950D1*
X55200Y17000D1*
Y17496D1*
X55204Y17500D1*
Y18496D1*
X55075Y18625D1*
X42326Y17250D2*
X46550D1*
X47000Y17700D1*
Y20200D1*
X47300Y20500D1*
X48500D1*
X48700Y20300D1*
Y18900D1*
X49100Y18500D1*
X54950D1*
X55075Y18625D1*
X49575Y15000D2*
X50450D1*
X51325D1*
X50450Y14125D2*
Y15000D1*
X42326Y16250D2*
Y15499D1*
X42950Y14875D1*
X44825D1*
X45575Y15625D1*
X48950D1*
X49575Y15000D1*
X3125Y12357D2*
X2393D1*
X2375Y12375D1*
X750Y7875D2*
X1625D1*
X1875Y8125D1*
Y12000D1*
X2250Y12375D1*
X2375D1*
Y10250D1*
X2500Y10125D1*
X3107D1*
X3125Y10107D1*
X13482Y12703D2*
D19*
X13132D1*
D17*
X12847D1*
X12650Y12900D1*
Y12950D1*
X12500Y13100D1*
X10850D1*
X10500Y12750D1*
Y10550D1*
X9150Y9200D1*
X3450D1*
X3150Y9500D1*
Y10082D1*
X3125Y10107D1*
X35931Y8375D2*
D13*
X34125D1*
X33250Y7500D1*
Y6625D1*
X35931Y2875D2*
X31125D1*
X30500Y3500D1*
Y6250D1*
X30875Y6625D1*
X31199D1*
X31254Y1004D2*
X26996D1*
X26625Y1375D1*
Y2500D1*
X26250Y2875D1*
X24750D1*
X22750D1*
X22375Y2500D1*
Y2250D1*
Y750D1*
X18195Y8375D2*
X24750D1*
X23000Y10750D2*
X24625D1*
X24750Y10625D1*
Y8375D1*
X31199Y10066D2*
X26941D1*
X26500Y9625D1*
Y8625D1*
X26250Y8375D1*
X24750D1*
X42500Y1375D2*
Y2375D1*
X42000Y2875D1*
X39750D1*
X33305Y4445D2*
X39180D1*
X39750Y3875D1*
Y2875D1*
X4375Y2500D2*
D17*
Y2375D1*
X4500Y2250D1*
X4945D1*
X44250Y1375D2*
D13*
Y5750D1*
X41625Y8375D1*
X39750D1*
X31254Y4445D2*
Y5004D1*
X31625Y5375D1*
X38875D1*
X39750Y6250D1*
Y8375D1*
X13805Y14320D2*
D17*
X14070D1*
X14375Y14625D1*
Y14750D1*
X15375Y15750D1*
X11750Y12309D2*
D19*
X11400D1*
D17*
X11259D1*
X11150Y12200D1*
X14500Y14250D2*
X13875D1*
X13805Y14320D1*
X750Y6375D2*
X2925D1*
X5500Y8950D1*
X9250D1*
X10750Y10450D1*
Y12400D1*
X11050Y12700D1*
X11747D1*
D19*
X11750Y12703D1*
X8624Y10124D2*
D17*
Y10999D1*
X8625Y11000D1*
X8875D1*
X9125Y11250D1*
Y14125D1*
D25*
X12300Y9800D3*
X10350Y14250D3*
X11700Y9450D3*
X6900Y15650D3*
X5150Y6500D3*
X2950Y14000D3*
D3*
Y11700D3*
X53900Y17500D3*
X43325Y18500D3*
X40875Y18625D3*
X39950Y18391D3*
X40200Y14250D3*
X28600Y17500D3*
X11850Y16000D3*
Y11395D3*
X7274Y10124D3*
X7500Y14450D3*
X4950Y14100D3*
X4050Y12200D3*
X1850Y20800D3*
X15450Y20650D3*
X17400Y14250D3*
X15000Y12150D3*
Y6450D3*
Y4500D3*
X10000Y1750D3*
X8500Y1200D3*
X6000Y1850D3*
X7300Y5100D3*
X34654Y1004D3*
X33250Y10550D3*
X22300Y5250D3*
X22250Y6600D3*
X30100Y8350D3*
X30000Y2900D3*
X11100Y19700D3*
X10800Y14200D3*
X30100Y20900D3*
X35650Y17850D3*
Y18850D3*
X52700Y19900D3*
X11150Y12200D3*
X14500Y14250D3*
D29*
X7545Y19205D3*
Y19795D3*
X9955Y19080D3*
Y19670D3*
D30*
X16563Y21688D3*
X14437D3*
X6438D3*
X4312D3*
X13063D3*
X10937D3*
X2938D3*
X812D3*
D31*
X39200Y17250D3*
Y18391D3*
D32*
X27200Y17500D3*
X27944D3*
D31*
X43325Y17890D3*
Y16749D3*
D32*
X53315Y17500D3*
X52571D3*
D33*
X20300Y24100D3*
D34*
Y26069D3*
D33*
Y19800D3*
D34*
Y21769D3*
D32*
X3593Y14015D3*
X4337D3*
X3593Y11640D3*
X4337D3*
X29945Y17495D3*
X29201D3*
X54460Y17500D3*
X55204D3*
D35*
X39750Y8375D3*
X35931D3*
X39750Y2875D3*
X35931D3*
X24750D3*
X28569D3*
Y8375D3*
X24750D3*
D36*
X15000Y7375D3*
Y8753D3*
Y2125D3*
Y3503D3*
D37*
X5186Y5064D3*
X6564D3*
D29*
X4375Y3091D3*
Y2500D3*
D38*
X40200Y15615D3*
Y14871D3*
D32*
X42200Y18625D3*
X41456D3*
D37*
X15250Y14250D3*
X16628D3*
D32*
X12995Y11395D3*
X12251D3*
X13000Y16000D3*
X12256D3*
D36*
X8500Y3503D3*
Y2125D3*
D38*
X10370Y14880D3*
Y15624D3*
X7370Y15620D3*
Y14876D3*
D39*
X38075Y15625D3*
D40*
Y19975D3*
D39*
X44450D3*
D40*
Y15625D3*
D41*
X42500Y1375D3*
X1000Y17300D3*
Y19100D3*
X22000Y16250D3*
X20150D3*
X750Y4900D3*
X44250Y1375D3*
X750Y9375D3*
Y7875D3*
Y6375D3*
D32*
X8377Y19750D3*
X9125D3*
D14*
X13980Y18355D3*
X12016D3*
D32*
X16250Y12875D3*
X15502D3*
D38*
X7376Y17374D3*
Y16626D3*
D32*
X7500Y18250D3*
X8248D3*
D42*
X34700Y15000D3*
Y20000D3*
X36450Y15000D3*
Y20000D3*
X25825D3*
Y15000D3*
X31200Y20000D3*
Y15000D3*
X24075D3*
Y20000D3*
X32950Y15000D3*
Y20000D3*
D32*
X7876Y10124D3*
X8624D3*
X7876Y12374D3*
X8624D3*
X9999Y18250D3*
X9251D3*
D42*
X47825Y15000D3*
Y20000D3*
D32*
X8623Y13250D3*
X7875D3*
D14*
X3520Y18355D3*
X5484D3*
D42*
X46075Y20000D3*
Y15000D3*
X56575D3*
Y20000D3*
X58281Y15000D3*
Y20000D3*
X51325D3*
Y15000D3*
X49575D3*
Y20000D3*
D14*
X27880Y23280D3*
X25916D3*
X33200D3*
X31236D3*
X38680D3*
X36716D3*
X51220D3*
X53184D3*
X56520D3*
X58484D3*
X45820D3*
X47784D3*
D38*
X1375Y12375D3*
Y13123D3*
X2375Y12375D3*
Y13123D3*
D32*
X7877Y11000D3*
X8625D3*
X15502Y12125D3*
X16250D3*
D43*
X1150Y23850D3*
D23*
X4500Y25850D3*
X3830Y23850D3*
X3160Y25850D3*
X2490Y23850D3*
X1820Y25850D3*
X5170Y23850D3*
X5840Y25850D3*
X6510Y23850D3*
X7180Y25850D3*
X7850Y23850D3*
D43*
X10650D3*
D23*
X14000Y25850D3*
X13330Y23850D3*
X12660Y25850D3*
X11990Y23850D3*
X11320Y25850D3*
X14670Y23850D3*
X15340Y25850D3*
X16010Y23850D3*
X16680Y25850D3*
X17350Y23850D3*
D45*
X35593Y13395D3*
Y14143D3*
X34805Y13769D3*
X36450Y14125D3*
Y13377D3*
X37237Y13751D3*
X27950Y16000D3*
Y16748D3*
X27163Y16374D3*
X29163Y16748D3*
Y16000D3*
X29950Y16374D3*
X28950Y19500D3*
Y20248D3*
X28163Y19874D3*
D46*
X36554Y26146D3*
D47*
X38700D3*
X40846D3*
D48*
X40200Y17750D3*
Y17250D3*
Y16750D3*
Y16250D3*
X42326D3*
Y16750D3*
Y17250D3*
Y17750D3*
D45*
X45825Y14125D3*
Y13377D3*
X46612Y13751D3*
D49*
X8125Y14125D3*
X8625D3*
X9125D3*
X9625D3*
Y16251D3*
X9125D3*
X8625D3*
X8125D3*
D45*
X48200Y13375D3*
Y14123D3*
X47413Y13749D3*
X53362Y16002D3*
Y16750D3*
X52575Y16376D3*
X54450Y16750D3*
Y16002D3*
X55237Y16376D3*
D46*
X50054Y26146D3*
D47*
X52200D3*
X54346D3*
D45*
X54325Y19500D3*
Y20248D3*
X53538Y19874D3*
D50*
X63500Y5625D3*
D46*
X56554Y26146D3*
D47*
X58700D3*
X60846D3*
D46*
X43554D3*
D47*
X45700D3*
X47846D3*
D52*
X3125Y13125D3*
Y12869D3*
Y12613D3*
Y12357D3*
X4818D3*
Y12613D3*
Y12869D3*
Y13125D3*
D46*
X30054Y26146D3*
D47*
X32200D3*
X34346D3*
D46*
X23554D3*
D47*
X25700D3*
X27846D3*
D52*
X3125Y10875D3*
Y10619D3*
Y10363D3*
Y10107D3*
X4818D3*
Y10363D3*
Y10619D3*
Y10875D3*
D53*
X33305Y1004D3*
Y4445D3*
X31254Y1004D3*
Y4445D3*
X31199Y10066D3*
Y6625D3*
X33250Y10066D3*
Y6625D3*
D55*
X22375Y2250D3*
Y4250D3*
D56*
X18320Y3250D3*
D55*
X22250Y7375D3*
Y9375D3*
D56*
X18195Y8375D3*
D58*
X6000Y3000D3*
D59*
X4945Y3750D3*
Y3250D3*
Y2750D3*
Y2250D3*
X7055D3*
Y2750D3*
Y3250D3*
Y3750D3*
D50*
X63500Y26875D3*
Y10625D3*
Y21875D3*
D14*
X60900Y6300D3*
X24950Y14000D3*
X38325Y13750D3*
X61200Y23000D3*
X44450Y13750D3*
X57450Y14125D3*
X20200Y17700D3*
X22700Y23000D3*
X50450Y14125D3*
X32075Y14000D3*
X29825Y18625D3*
X55075D3*
X23550Y24300D3*
X43400Y24050D3*
D61*
X11445Y14820D3*
Y15320D3*
Y14320D3*
Y13820D3*
X13805D3*
Y14320D3*
Y14820D3*
Y15320D3*
D63*
X11750Y12900D3*
Y12703D3*
Y12506D3*
Y12309D3*
Y12113D3*
X13482D3*
Y12309D3*
Y12506D3*
Y12703D3*
Y12900D3*
D14*
X6875Y12375D3*
Y11000D3*
Y13750D3*
X5500Y15850D3*
X15375Y15750D3*
X4000Y5125D3*
X8500Y4875D3*
X22375Y750D3*
X23000Y10750D3*
X15000Y10125D3*
X17250Y12250D3*
X3500Y15800D3*
X16250Y18250D3*
X64850Y13150D3*
X46950Y12250D3*
X36300Y12500D3*
D64*
X10750Y1750D3*
X12750D3*
D65*
X11750Y5805D3*
G36*
X150Y22050D2*
Y21350D1*
X200Y21300D1*
X1450D1*
X1550Y21400D1*
Y22000D1*
Y22500D1*
X1700Y22650D1*
X2500D1*
X2750Y22900D1*
Y23300D1*
X2950Y23500D1*
Y24250D1*
X2750Y24450D1*
X2200D1*
X2050Y24300D1*
Y23400D1*
X1800Y23150D1*
X1300D1*
X950Y22800D1*
X400Y22250D1*
X300D1*
X150Y22100D1*
D1*
Y22050D1*
G37*
G36*
X2600Y25750D2*
Y27450D1*
X3100Y27950D1*
X18450D1*
X18800Y27600D1*
Y27050D1*
X19000Y26850D1*
X20650D1*
Y25750D1*
X20400Y25500D1*
X19000D1*
X18150Y26350D1*
Y27300D1*
X18000Y27450D1*
X13500D1*
X13150Y27100D1*
Y25650D1*
Y25050D1*
X12750Y24650D1*
X12500Y24400D1*
Y23050D1*
X11950Y22500D1*
X11800Y22350D1*
Y21350D1*
X11650Y21200D1*
X10300D1*
X10150Y21350D1*
Y22100D1*
X10350Y22250D1*
X11400Y23300D1*
Y24500D1*
X12100Y25200D1*
Y26750D1*
X11750Y27100D1*
X8900D1*
X4100D1*
X3700Y26700D1*
Y25750D1*
Y25600D1*
X3500Y25400D1*
X2900D1*
D1*
X2600Y25750D1*
G37*
G36*
X20500Y20300D2*
X18700D1*
X17900Y21100D1*
Y23000D1*
Y24300D1*
X17350Y24850D1*
Y26350D1*
X17150Y26550D1*
X16450D1*
X16250Y26350D1*
Y25450D1*
Y24800D1*
X16800Y24250D1*
Y23150D1*
Y22750D1*
X16550Y22500D1*
X15950D1*
X15800Y22350D1*
Y21350D1*
X16150Y21000D1*
X16700Y20450D1*
X17150Y20000D1*
X17550Y19600D1*
X17800Y19350D1*
X17850Y19300D1*
X20550D1*
D1*
X20500Y20300D1*
G37*
D27*
X250Y250D3*
X65500Y34500D3*
X500D3*
M02*
