G04 DipTrace 2.4.0.2*
%INSSPS.GBL*%
%MOIN*%
%ADD13C,0.03*%
%ADD14C,0.1*%
%ADD16C,0.02*%
%ADD17C,0.013*%
%ADD20C,0.04*%
%ADD23C,0.075*%
%ADD25C,0.025*%
%ADD33R,0.0591X0.0591*%
%ADD34C,0.0591*%
%ADD39R,0.0709X0.0709*%
%ADD40C,0.0709*%
%ADD41C,0.12*%
%ADD42C,0.06*%
%ADD43R,0.075X0.075*%
%ADD46R,0.0945X0.0945*%
%ADD47C,0.0945*%
%ADD50C,0.25*%
%FSLAX44Y44*%
G04*
G70*
G90*
G75*
G01*
%LNBottom*%
%LPD*%
X31200Y20000D2*
D13*
Y21000D1*
X31600Y21400D1*
X36200D1*
X36800Y22000D1*
Y23196D1*
X36716Y23280D1*
X7850Y23850D2*
D16*
Y25180D1*
X7180Y25850D1*
X16680D2*
Y24520D1*
X17350Y23850D1*
X7180Y25850D2*
D17*
Y27530D1*
X7550Y27900D1*
X16250D1*
X16700Y27450D1*
Y25870D1*
X16680Y25850D1*
X12300Y9800D2*
X12250D1*
X10450Y11600D1*
Y13100D1*
X10350Y13200D1*
Y14250D1*
X2490Y23850D2*
Y24540D1*
X3150Y25200D1*
Y25840D1*
X3160Y25850D1*
X22000Y16250D2*
Y24369D1*
X20300Y26069D1*
X49575Y20000D2*
D16*
Y19375D1*
X49250Y19050D1*
X47200D1*
X47000Y19250D1*
Y21050D1*
X46650Y21400D1*
X43150D1*
X42500Y22050D1*
Y27100D1*
X42800Y27400D1*
X44446D1*
X45700Y26146D1*
X11700Y9450D2*
D17*
X10550D1*
X6900Y13100D1*
Y15650D1*
X5150Y6500D2*
Y11502D1*
Y11800D1*
X2950Y14000D1*
X5150Y11502D2*
X3148D1*
X2950Y11700D1*
X53900Y17500D2*
Y17550D1*
X43325Y18500D2*
X43250D1*
X40875Y18625D2*
X40850Y18650D1*
X39950Y18391D2*
Y18450D1*
X40200Y14250D2*
X40150D1*
Y14300D1*
X28600Y17500D2*
X28550D1*
X11850Y16000D2*
D16*
Y16050D1*
X11900D1*
X11850Y11395D2*
Y11500D1*
X7274Y10124D2*
X7350Y10200D1*
X7500Y14450D2*
X7550D1*
X4950Y14100D2*
X5000D1*
X4050Y12200D2*
X4000D1*
X1850Y20800D2*
D20*
X1800D1*
X15450Y20650D2*
X15500D1*
X17400Y14250D2*
D16*
X17450D1*
X15000Y12150D2*
X14950D1*
X15000Y6450D2*
X15100D1*
X15000Y4500D2*
X15100D1*
X10000Y1750D2*
X9950D1*
X8500Y1200D2*
X8600D1*
X6000Y1850D2*
X6100D1*
X7300Y5100D2*
X7350D1*
X34654Y1004D2*
X34700Y1050D1*
X33250Y10550D2*
X33300Y10500D1*
X22300Y5250D2*
X22350D1*
X22250Y6600D2*
X22300D1*
X30100Y8350D2*
X30150Y8400D1*
X30000Y2900D2*
X30050D1*
X3520Y18355D2*
D14*
Y21120D1*
X3800Y21400D1*
Y23820D1*
D23*
X3830Y23850D1*
X5170D1*
X11100Y19700D2*
D16*
Y23400D1*
X10650Y23850D1*
X13330D2*
D23*
X14670D1*
X13980Y18355D2*
D14*
Y22420D1*
X14200Y22200D1*
Y23380D1*
D23*
X14670Y23850D1*
X11320Y25850D2*
D16*
X11330D1*
X13330Y23850D1*
X10800Y14200D2*
X13300D1*
X14000Y14900D1*
Y18335D1*
X13980Y18355D1*
X12016D2*
X10145D1*
X9600Y18900D1*
Y25900D1*
X10300Y26600D1*
X14590D1*
X15340Y25850D1*
X1000Y17300D2*
D14*
X1100D1*
X1700Y16700D1*
X4800D1*
X5500Y17400D1*
Y18339D1*
X5484Y18355D1*
X12016D2*
X5484D1*
X5840Y25850D2*
D16*
Y18711D1*
X5484Y18355D1*
X30100Y20900D2*
D13*
Y26100D1*
X30054Y26146D1*
X25700D2*
Y25800D1*
X24700Y24800D1*
Y21100D1*
X25600Y20200D1*
X25625D1*
X25825Y20000D1*
X35650Y17850D2*
D17*
Y18850D1*
X27880Y23280D2*
D13*
Y26111D1*
X27846Y26146D1*
X56575Y20000D2*
Y23225D1*
X56520Y23280D1*
X47825Y20000D2*
Y21125D1*
X48200Y21500D1*
X54740D1*
X56520Y23280D1*
X52700Y19900D2*
X54500D1*
X55200Y19200D1*
X57300D1*
X57500Y19400D1*
Y25200D1*
X56554Y26146D1*
Y25254D1*
X55000Y23700D1*
Y23000D1*
X54200Y22200D1*
X52500D1*
X52200Y22500D1*
Y24000D1*
X50054Y26146D1*
Y24854D1*
X49500Y24300D1*
Y22600D1*
X49200Y22300D1*
X44600D1*
X43500Y23400D1*
Y26091D1*
X43554Y26146D1*
X33200Y23280D2*
Y23500D1*
X34400Y24700D1*
Y26091D1*
X34346Y26146D1*
X38680Y23280D2*
X39680D1*
X41000Y24600D1*
Y25991D1*
X40846Y26146D1*
X53184Y23280D2*
Y23584D1*
X54200Y24600D1*
Y26000D1*
X54346Y26146D1*
X58484Y23280D2*
X59280D1*
X60900Y24900D1*
Y26091D1*
X60846Y26146D1*
X47784Y23280D2*
Y26084D1*
X47846Y26146D1*
X11150Y12200D2*
D17*
X14050D1*
X14500Y12650D1*
Y14250D1*
D25*
X12300Y9800D3*
X10350Y14250D3*
X11700Y9450D3*
X6900Y15650D3*
X5150Y6500D3*
X2950Y14000D3*
D3*
Y11700D3*
X53900Y17500D3*
X43325Y18500D3*
X40875Y18625D3*
X39950Y18391D3*
X40200Y14250D3*
X28600Y17500D3*
X11850Y16000D3*
Y11395D3*
X7274Y10124D3*
X7500Y14450D3*
X4950Y14100D3*
X4050Y12200D3*
X1850Y20800D3*
X15450Y20650D3*
X17400Y14250D3*
X15000Y12150D3*
Y6450D3*
Y4500D3*
X10000Y1750D3*
X8500Y1200D3*
X6000Y1850D3*
X7300Y5100D3*
X34654Y1004D3*
X33250Y10550D3*
X22300Y5250D3*
X22250Y6600D3*
X30100Y8350D3*
X30000Y2900D3*
X11100Y19700D3*
X10800Y14200D3*
X30100Y20900D3*
X35650Y17850D3*
Y18850D3*
X52700Y19900D3*
X11150Y12200D3*
X14500Y14250D3*
X650Y34126D2*
X65352D1*
X650Y33878D2*
X65352D1*
X650Y33629D2*
X65352D1*
X650Y33380D2*
X65352D1*
X650Y33132D2*
X65352D1*
X650Y32883D2*
X65352D1*
X650Y32634D2*
X65352D1*
X650Y32385D2*
X65352D1*
X2300Y32137D2*
X63700D1*
X2578Y31888D2*
X63422D1*
X2742Y31639D2*
X63258D1*
X2843Y31391D2*
X63157D1*
X2894Y31142D2*
X63106D1*
X2898Y30893D2*
X63102D1*
X2855Y30645D2*
X63145D1*
X2761Y30396D2*
X63239D1*
X2605Y30147D2*
X63395D1*
X2351Y29899D2*
X63649D1*
X650Y29650D2*
X1207D1*
X1793D2*
X64207D1*
X64793D2*
X65352D1*
X650Y29401D2*
X65352D1*
X650Y29153D2*
X65352D1*
X650Y28904D2*
X65352D1*
X650Y28655D2*
X6817D1*
X16984D2*
X65352D1*
X650Y28406D2*
X6567D1*
X17234D2*
X62774D1*
X64226D2*
X65352D1*
X650Y28158D2*
X6403D1*
X17484D2*
X62383D1*
X64617D2*
X65352D1*
X650Y27909D2*
X6391D1*
X17730D2*
X42610D1*
X44636D2*
X62145D1*
X64855D2*
X65352D1*
X650Y27660D2*
X6391D1*
X17929D2*
X42278D1*
X44968D2*
X61985D1*
X65015D2*
X65352D1*
X650Y27412D2*
X6391D1*
X17961D2*
X42039D1*
X45214D2*
X61879D1*
X65121D2*
X65352D1*
X650Y27163D2*
X6391D1*
X17961D2*
X41946D1*
X45464D2*
X61817D1*
X65183D2*
X65352D1*
X650Y26914D2*
X6391D1*
X17961D2*
X22621D1*
X24488D2*
X25192D1*
X26207D2*
X27340D1*
X28351D2*
X29121D1*
X30988D2*
X31692D1*
X32707D2*
X33840D1*
X34851D2*
X35621D1*
X37488D2*
X38192D1*
X39207D2*
X40340D1*
X41351D2*
X41942D1*
X46207D2*
X47340D1*
X48351D2*
X49121D1*
X50988D2*
X51692D1*
X52707D2*
X53840D1*
X54851D2*
X55621D1*
X57488D2*
X58192D1*
X59207D2*
X60340D1*
X61351D2*
X61789D1*
X65211D2*
X65352D1*
X650Y26666D2*
X2524D1*
X3824D2*
X6391D1*
X17961D2*
X19856D1*
X20746D2*
X22621D1*
X24488D2*
X24930D1*
X26468D2*
X27079D1*
X28613D2*
X29121D1*
X30988D2*
X31430D1*
X32968D2*
X33579D1*
X35113D2*
X35621D1*
X37488D2*
X37930D1*
X39468D2*
X40079D1*
X41613D2*
X41942D1*
X46468D2*
X47079D1*
X48613D2*
X49121D1*
X50988D2*
X51430D1*
X52968D2*
X53579D1*
X55113D2*
X55621D1*
X57488D2*
X57930D1*
X59468D2*
X60079D1*
X61613D2*
X61805D1*
X65195D2*
X65352D1*
X650Y26417D2*
X1215D1*
X5105D2*
X5239D1*
X17961D2*
X19633D1*
X20968D2*
X22621D1*
X24488D2*
X24809D1*
X26589D2*
X26954D1*
X28738D2*
X29121D1*
X30988D2*
X31309D1*
X33089D2*
X33454D1*
X35238D2*
X35621D1*
X37488D2*
X37809D1*
X39589D2*
X39954D1*
X41738D2*
X41942D1*
X44488D2*
X44649D1*
X46589D2*
X46954D1*
X48738D2*
X49121D1*
X50988D2*
X51309D1*
X53089D2*
X53454D1*
X55238D2*
X55621D1*
X57488D2*
X57809D1*
X59589D2*
X59954D1*
X61738D2*
X61852D1*
X65148D2*
X65352D1*
X650Y26168D2*
X1051D1*
X17961D2*
X19551D1*
X21046D2*
X22621D1*
X24488D2*
X24770D1*
X26632D2*
X26914D1*
X28777D2*
X29121D1*
X30988D2*
X31270D1*
X33132D2*
X33414D1*
X35277D2*
X35621D1*
X37488D2*
X37770D1*
X39632D2*
X39914D1*
X41777D2*
X41940D1*
X44488D2*
X44770D1*
X46632D2*
X46914D1*
X48777D2*
X49121D1*
X50988D2*
X51270D1*
X53132D2*
X53414D1*
X55277D2*
X55621D1*
X57488D2*
X57770D1*
X59632D2*
X59914D1*
X61777D2*
X61948D1*
X65054D2*
X65352D1*
X650Y25920D2*
X989D1*
X17961D2*
X19559D1*
X21179D2*
X22621D1*
X24488D2*
X24797D1*
X26605D2*
X26942D1*
X28750D2*
X29121D1*
X30988D2*
X31297D1*
X33105D2*
X33442D1*
X35250D2*
X35621D1*
X37488D2*
X37797D1*
X39605D2*
X39942D1*
X41750D2*
X41942D1*
X44488D2*
X44797D1*
X46605D2*
X46942D1*
X48750D2*
X49121D1*
X51132D2*
X51297D1*
X53105D2*
X53442D1*
X55250D2*
X55621D1*
X57632D2*
X57797D1*
X59605D2*
X59942D1*
X61750D2*
X62086D1*
X64914D2*
X65352D1*
X650Y25671D2*
X1004D1*
X18070D2*
X19664D1*
X21429D2*
X22621D1*
X24488D2*
X24719D1*
X26500D2*
X27047D1*
X28644D2*
X29121D1*
X30988D2*
X31403D1*
X33000D2*
X33547D1*
X35144D2*
X35621D1*
X37488D2*
X37903D1*
X39500D2*
X40047D1*
X41644D2*
X41942D1*
X44488D2*
X44903D1*
X46500D2*
X47047D1*
X48644D2*
X49121D1*
X53000D2*
X53547D1*
X55144D2*
X55621D1*
X59500D2*
X60047D1*
X61644D2*
X62297D1*
X64703D2*
X65352D1*
X650Y25422D2*
X1106D1*
X18300D2*
X19934D1*
X21679D2*
X22621D1*
X26273D2*
X27270D1*
X28492D2*
X29121D1*
X30988D2*
X31629D1*
X32773D2*
X33774D1*
X35011D2*
X35621D1*
X37488D2*
X38129D1*
X39273D2*
X40274D1*
X41609D2*
X41942D1*
X44488D2*
X45129D1*
X46273D2*
X47176D1*
X48418D2*
X49121D1*
X52773D2*
X53590D1*
X54918D2*
X55621D1*
X59273D2*
X60274D1*
X61511D2*
X62621D1*
X64379D2*
X65352D1*
X650Y25174D2*
X1348D1*
X18359D2*
X20461D1*
X21925D2*
X24223D1*
X25925D2*
X27270D1*
X28492D2*
X29489D1*
X30711D2*
X33789D1*
X35011D2*
X40391D1*
X41609D2*
X41942D1*
X44109D2*
X47176D1*
X48394D2*
X49446D1*
X51879D2*
X53590D1*
X54808D2*
X55621D1*
X58109D2*
X60289D1*
X61511D2*
X65352D1*
X650Y24925D2*
X1786D1*
X18359D2*
X20711D1*
X22175D2*
X24102D1*
X25675D2*
X27270D1*
X28492D2*
X29489D1*
X30711D2*
X33774D1*
X35011D2*
X40391D1*
X41609D2*
X41942D1*
X44109D2*
X47176D1*
X48394D2*
X49274D1*
X52129D2*
X53590D1*
X54808D2*
X55371D1*
X58109D2*
X60075D1*
X61511D2*
X65352D1*
X650Y24676D2*
X1610D1*
X18359D2*
X20961D1*
X22418D2*
X24090D1*
X25429D2*
X27270D1*
X28492D2*
X29489D1*
X30711D2*
X33524D1*
X35011D2*
X40223D1*
X41609D2*
X41942D1*
X44109D2*
X47176D1*
X48394D2*
X49028D1*
X52375D2*
X53422D1*
X54808D2*
X55125D1*
X58109D2*
X59825D1*
X61464D2*
X65352D1*
X650Y24427D2*
X1590D1*
X18359D2*
X21207D1*
X22523D2*
X24090D1*
X25308D2*
X27270D1*
X28492D2*
X29489D1*
X30711D2*
X33274D1*
X34941D2*
X39977D1*
X41586D2*
X41942D1*
X44109D2*
X47176D1*
X48394D2*
X48903D1*
X52625D2*
X53176D1*
X54785D2*
X54874D1*
X58109D2*
X59575D1*
X61281D2*
X65352D1*
X650Y24179D2*
X1590D1*
X18359D2*
X21457D1*
X22523D2*
X24090D1*
X25308D2*
X25633D1*
X26199D2*
X27270D1*
X28492D2*
X29489D1*
X30711D2*
X30954D1*
X31519D2*
X32918D1*
X34730D2*
X36434D1*
X37000D2*
X38399D1*
X38961D2*
X39727D1*
X41429D2*
X41942D1*
X44109D2*
X45539D1*
X46101D2*
X47176D1*
X48394D2*
X48891D1*
X52781D2*
X52903D1*
X58109D2*
X58202D1*
X58765D2*
X59329D1*
X61031D2*
X65352D1*
X650Y23930D2*
X1590D1*
X18359D2*
X21477D1*
X22523D2*
X24090D1*
X26613D2*
X27184D1*
X28578D2*
X29489D1*
X31933D2*
X32504D1*
X34484D2*
X36020D1*
X37414D2*
X37985D1*
X39379D2*
X39477D1*
X41183D2*
X41942D1*
X44109D2*
X45121D1*
X46515D2*
X47086D1*
X48480D2*
X48891D1*
X60781D2*
X65352D1*
X650Y23681D2*
X1590D1*
X18359D2*
X21477D1*
X22523D2*
X24090D1*
X26785D2*
X27012D1*
X28750D2*
X29489D1*
X32105D2*
X32332D1*
X34234D2*
X35848D1*
X37586D2*
X37809D1*
X40933D2*
X41942D1*
X44109D2*
X44950D1*
X46691D2*
X46914D1*
X48652D2*
X48891D1*
X54132D2*
X54391D1*
X60535D2*
X65352D1*
X650Y23433D2*
X1590D1*
X18328D2*
X21477D1*
X22523D2*
X24090D1*
X28828D2*
X29489D1*
X34148D2*
X35770D1*
X40683D2*
X41942D1*
X44320D2*
X44871D1*
X48730D2*
X48891D1*
X54132D2*
X54391D1*
X60285D2*
X65352D1*
X650Y23184D2*
X1649D1*
X12476D2*
X12844D1*
X15175D2*
X15524D1*
X16496D2*
X16625D1*
X18125D2*
X21477D1*
X22523D2*
X24090D1*
X28836D2*
X29489D1*
X34156D2*
X35762D1*
X40437D2*
X41942D1*
X44570D2*
X44864D1*
X48738D2*
X48891D1*
X54140D2*
X54332D1*
X60035D2*
X65352D1*
X650Y22935D2*
X1887D1*
X11660D2*
X13176D1*
X15160D2*
X21477D1*
X22523D2*
X24090D1*
X26808D2*
X26985D1*
X28773D2*
X29489D1*
X32129D2*
X32305D1*
X34093D2*
X35821D1*
X37609D2*
X37786D1*
X40187D2*
X41942D1*
X44816D2*
X44926D1*
X46714D2*
X46891D1*
X48679D2*
X48891D1*
X59789D2*
X65352D1*
X650Y22687D2*
X2840D1*
X11660D2*
X13059D1*
X15160D2*
X21477D1*
X22523D2*
X24090D1*
X26664D2*
X27133D1*
X28629D2*
X29489D1*
X31984D2*
X32454D1*
X33949D2*
X35969D1*
X37464D2*
X37934D1*
X39429D2*
X41942D1*
X59230D2*
X65352D1*
X650Y22438D2*
X2840D1*
X11660D2*
X13020D1*
X15160D2*
X21477D1*
X22523D2*
X24090D1*
X25308D2*
X25485D1*
X26347D2*
X27450D1*
X28312D2*
X29489D1*
X30711D2*
X30806D1*
X31668D2*
X32770D1*
X33632D2*
X36192D1*
X37410D2*
X38250D1*
X39113D2*
X41942D1*
X58914D2*
X65352D1*
X650Y22189D2*
X2840D1*
X11660D2*
X13020D1*
X15160D2*
X21477D1*
X22523D2*
X24090D1*
X25308D2*
X29489D1*
X30711D2*
X36137D1*
X37410D2*
X41942D1*
X58109D2*
X65352D1*
X650Y21941D2*
X2840D1*
X11660D2*
X13020D1*
X15125D2*
X21477D1*
X22523D2*
X24090D1*
X25308D2*
X29489D1*
X30711D2*
X31352D1*
X37406D2*
X41950D1*
X58109D2*
X65352D1*
X650Y21692D2*
X2754D1*
X11660D2*
X13020D1*
X15011D2*
X21477D1*
X22523D2*
X24090D1*
X25308D2*
X29489D1*
X30711D2*
X31039D1*
X37324D2*
X42079D1*
X55785D2*
X55964D1*
X58109D2*
X65352D1*
X650Y21443D2*
X2618D1*
X11660D2*
X13020D1*
X14941D2*
X21477D1*
X22523D2*
X24090D1*
X25308D2*
X29489D1*
X30711D2*
X30794D1*
X37097D2*
X42325D1*
X55535D2*
X55965D1*
X58109D2*
X65352D1*
X650Y21195D2*
X2563D1*
X11660D2*
X13020D1*
X14941D2*
X21477D1*
X22523D2*
X24090D1*
X25457D2*
X29489D1*
X36847D2*
X42575D1*
X55285D2*
X55965D1*
X58109D2*
X65352D1*
X650Y20946D2*
X2559D1*
X11660D2*
X13020D1*
X14941D2*
X21477D1*
X22523D2*
X24110D1*
X25707D2*
X29489D1*
X36593D2*
X42844D1*
X54953D2*
X55965D1*
X58109D2*
X65352D1*
X650Y20697D2*
X2559D1*
X11660D2*
X13020D1*
X14941D2*
X21477D1*
X22523D2*
X23817D1*
X26082D2*
X29528D1*
X31808D2*
X34442D1*
X34957D2*
X46442D1*
X48433D2*
X49317D1*
X49832D2*
X55965D1*
X58539D2*
X65352D1*
X650Y20448D2*
X2559D1*
X11660D2*
X13020D1*
X14941D2*
X19543D1*
X21054D2*
X21477D1*
X22523D2*
X23469D1*
X26433D2*
X29704D1*
X30496D2*
X30588D1*
X31808D2*
X34094D1*
X35308D2*
X46442D1*
X48433D2*
X48969D1*
X50183D2*
X52473D1*
X54726D2*
X55965D1*
X58886D2*
X65352D1*
X650Y20200D2*
X2559D1*
X11660D2*
X13020D1*
X14941D2*
X19543D1*
X21054D2*
X21477D1*
X22523D2*
X23344D1*
X26558D2*
X30469D1*
X31933D2*
X33969D1*
X35433D2*
X46442D1*
X48558D2*
X48844D1*
X50308D2*
X52172D1*
X55050D2*
X55844D1*
X59015D2*
X65352D1*
X650Y19951D2*
X2559D1*
X11660D2*
X13020D1*
X14941D2*
X19543D1*
X21054D2*
X21477D1*
X22523D2*
X23317D1*
X24832D2*
X24996D1*
X26582D2*
X30442D1*
X31957D2*
X33942D1*
X35457D2*
X46442D1*
X48582D2*
X48817D1*
X50332D2*
X52094D1*
X55300D2*
X55817D1*
X59039D2*
X65352D1*
X650Y19702D2*
X2559D1*
X11683D2*
X13020D1*
X14941D2*
X19543D1*
X21054D2*
X21477D1*
X22523D2*
X23379D1*
X24773D2*
X25129D1*
X26523D2*
X30504D1*
X31898D2*
X34004D1*
X35398D2*
X46442D1*
X48523D2*
X48879D1*
X50273D2*
X52125D1*
X58976D2*
X65352D1*
X650Y19454D2*
X2559D1*
X11629D2*
X13020D1*
X14941D2*
X19543D1*
X21054D2*
X21477D1*
X22523D2*
X23559D1*
X24593D2*
X25309D1*
X26343D2*
X30684D1*
X31718D2*
X34184D1*
X35218D2*
X46442D1*
X50136D2*
X52297D1*
X58796D2*
X65352D1*
X650Y19205D2*
X2559D1*
X12429D2*
X13020D1*
X14941D2*
X19543D1*
X21054D2*
X21477D1*
X22523D2*
X35192D1*
X36109D2*
X46442D1*
X50109D2*
X54344D1*
X58078D2*
X65352D1*
X650Y18956D2*
X2559D1*
X12757D2*
X13020D1*
X14941D2*
X21477D1*
X22523D2*
X35075D1*
X36226D2*
X46528D1*
X49937D2*
X54590D1*
X57910D2*
X65352D1*
X650Y18708D2*
X2559D1*
X12906D2*
X13020D1*
X14941D2*
X21477D1*
X22523D2*
X35082D1*
X36218D2*
X46762D1*
X49691D2*
X54860D1*
X57640D2*
X65352D1*
X650Y18459D2*
X2559D1*
X14941D2*
X21477D1*
X22523D2*
X35125D1*
X36175D2*
X65352D1*
X1519Y18210D2*
X2571D1*
X14929D2*
X21477D1*
X22523D2*
X35125D1*
X36175D2*
X65352D1*
X1820Y17962D2*
X2649D1*
X12890D2*
X13106D1*
X14851D2*
X21477D1*
X22523D2*
X35075D1*
X36222D2*
X65352D1*
X2035Y17713D2*
X2817D1*
X12718D2*
X13274D1*
X14683D2*
X21477D1*
X22523D2*
X35082D1*
X36218D2*
X65352D1*
X12324Y17464D2*
X13442D1*
X14558D2*
X21477D1*
X22523D2*
X35219D1*
X36082D2*
X65352D1*
X6441Y17216D2*
X13442D1*
X14558D2*
X19754D1*
X20546D2*
X21477D1*
X22523D2*
X65352D1*
X6355Y16967D2*
X13442D1*
X14558D2*
X19379D1*
X20921D2*
X21227D1*
X22773D2*
X65352D1*
X6164Y16718D2*
X13442D1*
X14558D2*
X19204D1*
X22949D2*
X65352D1*
X5918Y16469D2*
X13442D1*
X14558D2*
X19114D1*
X23035D2*
X65352D1*
X650Y16221D2*
X832D1*
X5668D2*
X13442D1*
X14558D2*
X19090D1*
X23058D2*
X37262D1*
X38890D2*
X43907D1*
X44992D2*
X65352D1*
X650Y15972D2*
X1090D1*
X5410D2*
X6418D1*
X7382D2*
X13442D1*
X14558D2*
X19129D1*
X23023D2*
X37262D1*
X38890D2*
X43715D1*
X45183D2*
X65352D1*
X650Y15723D2*
X6321D1*
X7480D2*
X13442D1*
X14558D2*
X19235D1*
X22918D2*
X23922D1*
X24230D2*
X25672D1*
X25980D2*
X31047D1*
X31355D2*
X32797D1*
X33105D2*
X34547D1*
X34855D2*
X36297D1*
X36605D2*
X37262D1*
X38890D2*
X43641D1*
X45257D2*
X45922D1*
X46230D2*
X47672D1*
X47980D2*
X49422D1*
X49730D2*
X51172D1*
X51480D2*
X56422D1*
X56730D2*
X58125D1*
X58437D2*
X65352D1*
X650Y15475D2*
X6344D1*
X7457D2*
X13442D1*
X14558D2*
X19438D1*
X20859D2*
X21289D1*
X22711D2*
X23489D1*
X24660D2*
X25239D1*
X26410D2*
X30614D1*
X31785D2*
X32364D1*
X33535D2*
X34114D1*
X35285D2*
X35864D1*
X37035D2*
X37262D1*
X38890D2*
X43649D1*
X45250D2*
X45489D1*
X46660D2*
X47239D1*
X48410D2*
X48989D1*
X50160D2*
X50739D1*
X51910D2*
X55989D1*
X57160D2*
X57696D1*
X58867D2*
X65352D1*
X650Y15226D2*
X6375D1*
X7425D2*
X13442D1*
X14558D2*
X19977D1*
X20324D2*
X21825D1*
X22175D2*
X23352D1*
X24800D2*
X25102D1*
X26550D2*
X30477D1*
X31925D2*
X32227D1*
X33675D2*
X33977D1*
X35425D2*
X35727D1*
X37175D2*
X37262D1*
X38890D2*
X43743D1*
X45156D2*
X45352D1*
X46800D2*
X47102D1*
X48550D2*
X48852D1*
X50300D2*
X50602D1*
X52050D2*
X55852D1*
X57300D2*
X57555D1*
X59004D2*
X65352D1*
X650Y14977D2*
X6375D1*
X7425D2*
X13297D1*
X14558D2*
X23317D1*
X24836D2*
X25067D1*
X26586D2*
X30442D1*
X31961D2*
X32192D1*
X33711D2*
X33942D1*
X35461D2*
X35692D1*
X38890D2*
X43973D1*
X44925D2*
X45317D1*
X46836D2*
X47067D1*
X48586D2*
X48817D1*
X50336D2*
X50567D1*
X52086D2*
X55817D1*
X57336D2*
X57520D1*
X59039D2*
X65352D1*
X650Y14729D2*
X6375D1*
X7425D2*
X10036D1*
X14816D2*
X23368D1*
X24785D2*
X25118D1*
X26535D2*
X30493D1*
X31910D2*
X32243D1*
X33660D2*
X33993D1*
X35410D2*
X35743D1*
X37160D2*
X45368D1*
X46785D2*
X47118D1*
X48535D2*
X48868D1*
X50285D2*
X50618D1*
X52035D2*
X55868D1*
X57285D2*
X57575D1*
X58988D2*
X65352D1*
X650Y14480D2*
X2637D1*
X3261D2*
X6375D1*
X7425D2*
X9813D1*
X15035D2*
X23532D1*
X24621D2*
X25282D1*
X26371D2*
X30657D1*
X31746D2*
X32407D1*
X33496D2*
X34157D1*
X35246D2*
X35907D1*
X36996D2*
X45532D1*
X46621D2*
X47282D1*
X48371D2*
X49032D1*
X50121D2*
X50782D1*
X51871D2*
X56032D1*
X57121D2*
X57739D1*
X58824D2*
X65352D1*
X650Y14231D2*
X2414D1*
X3484D2*
X6375D1*
X7425D2*
X9766D1*
X15086D2*
X65352D1*
X650Y13983D2*
X2364D1*
X3699D2*
X6375D1*
X7425D2*
X9825D1*
X15023D2*
X65352D1*
X650Y13734D2*
X2434D1*
X3949D2*
X6375D1*
X7425D2*
X9825D1*
X15023D2*
X65352D1*
X650Y13485D2*
X2704D1*
X4195D2*
X6375D1*
X7425D2*
X9825D1*
X15023D2*
X65352D1*
X650Y13237D2*
X2981D1*
X4445D2*
X6375D1*
X7496D2*
X9825D1*
X15023D2*
X65352D1*
X650Y12988D2*
X3231D1*
X4695D2*
X6387D1*
X7746D2*
X9871D1*
X15023D2*
X65352D1*
X650Y12739D2*
X3477D1*
X4941D2*
X6528D1*
X7992D2*
X9926D1*
X15023D2*
X65352D1*
X650Y12490D2*
X3727D1*
X5191D2*
X6778D1*
X8242D2*
X9926D1*
X15000D2*
X65352D1*
X650Y12242D2*
X2786D1*
X3117D2*
X3977D1*
X5441D2*
X7028D1*
X8492D2*
X9926D1*
X14824D2*
X65352D1*
X650Y11993D2*
X2450D1*
X5636D2*
X7274D1*
X8738D2*
X9926D1*
X14574D2*
X65352D1*
X650Y11744D2*
X2368D1*
X5675D2*
X7524D1*
X8988D2*
X9926D1*
X14281D2*
X65352D1*
X650Y11496D2*
X2403D1*
X5675D2*
X7774D1*
X9238D2*
X9938D1*
X11285D2*
X65352D1*
X650Y11247D2*
X2594D1*
X5675D2*
X8020D1*
X9484D2*
X10071D1*
X11535D2*
X65352D1*
X650Y10998D2*
X4625D1*
X5675D2*
X8270D1*
X9734D2*
X10321D1*
X11785D2*
X65352D1*
X650Y10750D2*
X4625D1*
X5675D2*
X8520D1*
X9984D2*
X10567D1*
X12031D2*
X65352D1*
X650Y10501D2*
X4625D1*
X5675D2*
X8766D1*
X10230D2*
X10817D1*
X12281D2*
X65352D1*
X1324Y10252D2*
X4625D1*
X5675D2*
X9016D1*
X10480D2*
X11067D1*
X12656D2*
X65352D1*
X1597Y10004D2*
X4625D1*
X5675D2*
X9266D1*
X10730D2*
X11313D1*
X12847D2*
X65352D1*
X1738Y9755D2*
X4625D1*
X5675D2*
X9512D1*
X12882D2*
X65352D1*
X1800Y9506D2*
X4625D1*
X5675D2*
X9762D1*
X12800D2*
X65352D1*
X1804Y9258D2*
X4625D1*
X5675D2*
X10012D1*
X12464D2*
X65352D1*
X1742Y9009D2*
X4625D1*
X5675D2*
X10289D1*
X12070D2*
X65352D1*
X1609Y8760D2*
X4625D1*
X5675D2*
X65352D1*
X1589Y8511D2*
X4625D1*
X5675D2*
X65352D1*
X1734Y8263D2*
X4625D1*
X5675D2*
X65352D1*
X1800Y8014D2*
X4625D1*
X5675D2*
X65352D1*
X1804Y7765D2*
X4625D1*
X5675D2*
X65352D1*
X1746Y7517D2*
X4625D1*
X5675D2*
X65352D1*
X1613Y7268D2*
X4625D1*
X5675D2*
X63102D1*
X63898D2*
X65352D1*
X1586Y7019D2*
X4625D1*
X5675D2*
X62528D1*
X64472D2*
X65352D1*
X1730Y6771D2*
X4625D1*
X5675D2*
X62239D1*
X64761D2*
X65352D1*
X1800Y6522D2*
X4567D1*
X5734D2*
X62047D1*
X64953D2*
X65352D1*
X1804Y6273D2*
X4614D1*
X5687D2*
X61918D1*
X65082D2*
X65352D1*
X1750Y6025D2*
X4829D1*
X5472D2*
X61836D1*
X65164D2*
X65352D1*
X1621Y5776D2*
X61797D1*
X65203D2*
X65352D1*
X1367Y5527D2*
X61793D1*
X65207D2*
X65352D1*
X650Y5279D2*
X61825D1*
X65175D2*
X65352D1*
X650Y5030D2*
X61899D1*
X65101D2*
X65352D1*
X650Y4781D2*
X62016D1*
X64984D2*
X65352D1*
X650Y4532D2*
X62192D1*
X64808D2*
X65352D1*
X650Y4284D2*
X62454D1*
X64546D2*
X65352D1*
X650Y4035D2*
X62918D1*
X64082D2*
X65352D1*
X650Y3786D2*
X65352D1*
X650Y3538D2*
X65352D1*
X650Y3289D2*
X65352D1*
X650Y3040D2*
X65352D1*
X650Y2792D2*
X1000D1*
X2000D2*
X64000D1*
X65000D2*
X65352D1*
X2421Y2543D2*
X63579D1*
X2648Y2294D2*
X42000D1*
X43000D2*
X43750D1*
X44750D2*
X63352D1*
X2789Y2046D2*
X41688D1*
X43312D2*
X43438D1*
X45062D2*
X63211D1*
X2871Y1797D2*
X41532D1*
X45218D2*
X63129D1*
X2902Y1548D2*
X41454D1*
X45296D2*
X63098D1*
X2886Y1300D2*
X41442D1*
X45308D2*
X63114D1*
X2828Y1051D2*
X41493D1*
X45257D2*
X63172D1*
X2711Y802D2*
X41614D1*
X45136D2*
X63289D1*
X20326Y25339D2*
X20197Y25345D1*
X20076Y25373D1*
X19961Y25422D1*
X19855Y25489D1*
X19763Y25573D1*
X19687Y25672D1*
X19628Y25782D1*
X19589Y25901D1*
X19571Y26024D1*
X19574Y26149D1*
X19599Y26272D1*
X19643Y26388D1*
X19707Y26495D1*
X19789Y26590D1*
X19885Y26669D1*
X19993Y26731D1*
X20111Y26774D1*
X20234Y26796D1*
X20359D1*
X20482Y26776D1*
X20600Y26735D1*
X20709Y26674D1*
X20806Y26595D1*
X20888Y26501D1*
X20953Y26395D1*
X20999Y26279D1*
X21025Y26157D1*
X21029Y26049D1*
X22354Y24722D1*
X22430Y24624D1*
X22480Y24509D1*
X22500Y24369D1*
Y17154D1*
X22586Y17103D1*
X22684Y17026D1*
X22773Y16938D1*
X22850Y16840D1*
X22915Y16734D1*
X22967Y16620D1*
X23004Y16501D1*
X23027Y16378D1*
X23035Y16250D1*
X23027Y16125D1*
X23005Y16002D1*
X22968Y15883D1*
X22917Y15769D1*
X22852Y15662D1*
X22775Y15564D1*
X22687Y15476D1*
X22588Y15398D1*
X22481Y15334D1*
X22368Y15282D1*
X22248Y15245D1*
X22125Y15223D1*
X22001Y15215D1*
X21876Y15222D1*
X21753Y15245D1*
X21634Y15282D1*
X21520Y15333D1*
X21413Y15398D1*
X21315Y15475D1*
X21226Y15563D1*
X21149Y15661D1*
X21076Y15786D1*
X21002Y15662D1*
X20925Y15564D1*
X20837Y15476D1*
X20738Y15398D1*
X20631Y15334D1*
X20518Y15282D1*
X20398Y15245D1*
X20275Y15223D1*
X20151Y15215D1*
X20026Y15222D1*
X19903Y15245D1*
X19784Y15282D1*
X19670Y15333D1*
X19563Y15398D1*
X19465Y15475D1*
X19376Y15563D1*
X19299Y15661D1*
X19234Y15768D1*
X19183Y15882D1*
X19145Y16001D1*
X19123Y16124D1*
X19115Y16248D1*
X19122Y16373D1*
X19145Y16496D1*
X19182Y16615D1*
X19233Y16729D1*
X19297Y16836D1*
X19374Y16935D1*
X19462Y17023D1*
X19560Y17101D1*
X19667Y17165D1*
X19781Y17217D1*
X19900Y17254D1*
X20023Y17277D1*
X20148Y17285D1*
X20272Y17278D1*
X20395Y17256D1*
X20515Y17219D1*
X20629Y17168D1*
X20736Y17103D1*
X20834Y17026D1*
X20923Y16938D1*
X21000Y16840D1*
X21073Y16716D1*
X21147Y16836D1*
X21224Y16935D1*
X21312Y17023D1*
X21410Y17101D1*
X21500Y17155D1*
Y24160D1*
X20323Y25338D1*
X19695Y20530D2*
X21030D1*
Y19070D1*
X19570D1*
Y20530D1*
X19695D1*
X37411Y16414D2*
X38864D1*
Y14836D1*
X37286D1*
Y16414D1*
X37411D1*
X45229Y15501D2*
X45200Y15379D1*
X45152Y15264D1*
X45086Y15158D1*
X45005Y15063D1*
X44909Y14983D1*
X44802Y14919D1*
X44686Y14872D1*
X44564Y14844D1*
X44440Y14836D1*
X44316Y14847D1*
X44195Y14878D1*
X44080Y14928D1*
X43975Y14995D1*
X43881Y15078D1*
X43802Y15174D1*
X43739Y15282D1*
X43694Y15398D1*
X43668Y15521D1*
X43661Y15645D1*
X43674Y15769D1*
X43706Y15890D1*
X43758Y16004D1*
X43826Y16108D1*
X43910Y16201D1*
X44008Y16279D1*
X44116Y16340D1*
X44233Y16384D1*
X44356Y16409D1*
X44480Y16414D1*
X44604Y16399D1*
X44725Y16365D1*
X44838Y16313D1*
X44941Y16243D1*
X45033Y16158D1*
X45109Y16059D1*
X45170Y15950D1*
X45212Y15832D1*
X45235Y15709D1*
X45239Y15625D1*
X45229Y15501D1*
X63436Y628D2*
X63297Y831D1*
X63196Y1059D1*
X63138Y1302D1*
X63125Y1551D1*
X63157Y1799D1*
X63233Y2037D1*
X63350Y2257D1*
X63506Y2452D1*
X63694Y2616D1*
X63909Y2743D1*
X64143Y2829D1*
X64389Y2872D1*
X64639Y2869D1*
X64884Y2822D1*
X65117Y2730D1*
X65329Y2599D1*
X65374Y2562D1*
X65375Y26250D1*
Y29941D1*
X65245Y29843D1*
X65023Y29727D1*
X64785Y29653D1*
X64537Y29624D1*
X64288Y29640D1*
X64046Y29701D1*
X63818Y29804D1*
X63614Y29947D1*
X63438Y30125D1*
X63297Y30331D1*
X63196Y30559D1*
X63138Y30802D1*
X63125Y31051D1*
X63157Y31299D1*
X63233Y31537D1*
X63350Y31757D1*
X63506Y31952D1*
X63694Y32116D1*
X63909Y32243D1*
X64143Y32329D1*
X64389Y32372D1*
X64639Y32369D1*
X64884Y32322D1*
X65117Y32230D1*
X65329Y32099D1*
X65374Y32062D1*
X65375Y34375D1*
X625D1*
Y32059D1*
X799Y32184D1*
X1024Y32291D1*
X1265Y32356D1*
X1514Y32376D1*
X1763Y32351D1*
X2002Y32281D1*
X2226Y32170D1*
X2425Y32019D1*
X2594Y31835D1*
X2727Y31624D1*
X2819Y31392D1*
X2868Y31147D1*
X2876Y31000D1*
X2854Y30751D1*
X2786Y30511D1*
X2677Y30287D1*
X2529Y30086D1*
X2347Y29915D1*
X2137Y29780D1*
X1906Y29685D1*
X1662Y29633D1*
X1412Y29627D1*
X1165Y29665D1*
X930Y29747D1*
X713Y29871D1*
X623Y29940D1*
X625Y27500D1*
X631Y18267D1*
X750Y18304D1*
X873Y18327D1*
X998Y18335D1*
X1122Y18328D1*
X1245Y18306D1*
X1365Y18269D1*
X1479Y18218D1*
X1586Y18153D1*
X1684Y18076D1*
X1773Y17988D1*
X1881Y17840D1*
X2090Y17632D1*
X2923Y17635D1*
X2826Y17728D1*
X2749Y17826D1*
X2685Y17933D1*
X2637Y18048D1*
X2604Y18169D1*
X2585Y18355D1*
Y21120D1*
X2593Y21245D1*
X2618Y21367D1*
X2659Y21485D1*
X2716Y21597D1*
X2816Y21736D1*
X2867Y21789D1*
X2865Y22880D1*
X2750Y22865D1*
X2150D1*
X2027Y22883D1*
X1911Y22937D1*
X1842Y22992D1*
X1683Y23166D1*
X1642Y23250D1*
X1619Y23344D1*
X1615Y23775D1*
Y24550D1*
X1633Y24673D1*
X1672Y24765D1*
X1742Y24858D1*
X1933Y25048D1*
X1842Y25040D1*
X1718Y25046D1*
X1595Y25072D1*
X1478Y25116D1*
X1370Y25177D1*
X1271Y25254D1*
X1186Y25345D1*
X1116Y25449D1*
X1063Y25562D1*
X1028Y25682D1*
X1011Y25805D1*
X1014Y25930D1*
X1036Y26053D1*
X1076Y26171D1*
X1135Y26282D1*
X1209Y26382D1*
X1298Y26469D1*
X1400Y26542D1*
X1511Y26599D1*
X1630Y26637D1*
X1753Y26657D1*
X1878Y26658D1*
X2001Y26639D1*
X2121Y26602D1*
X2233Y26547D1*
X2349Y26462D1*
X2592Y26708D1*
X2692Y26782D1*
X2785Y26819D1*
X2900Y26835D1*
X3450D1*
X3573Y26817D1*
X3665Y26778D1*
X3758Y26708D1*
X3960Y26504D1*
X4080Y26542D1*
X4191Y26599D1*
X4310Y26637D1*
X4433Y26657D1*
X4558Y26658D1*
X4681Y26639D1*
X4801Y26602D1*
X4913Y26547D1*
X5015Y26475D1*
X5105Y26389D1*
X5169Y26305D1*
X5229Y26382D1*
X5318Y26469D1*
X5420Y26542D1*
X5531Y26599D1*
X5650Y26637D1*
X5773Y26657D1*
X5898Y26658D1*
X6021Y26639D1*
X6141Y26602D1*
X6253Y26547D1*
X6386Y26446D1*
X6417Y26482D1*
X6415Y27475D1*
Y28050D1*
X6433Y28173D1*
X6472Y28265D1*
X6542Y28358D1*
X6942Y28758D1*
X7042Y28832D1*
X7135Y28869D1*
X7250Y28885D1*
X16550D1*
X16673Y28867D1*
X16765Y28828D1*
X16858Y28758D1*
X17808Y27808D1*
X17882Y27708D1*
X17919Y27615D1*
X17935Y27500D1*
Y25780D1*
X18208Y25508D1*
X18282Y25408D1*
X18319Y25315D1*
X18335Y25200D1*
Y23600D1*
X18317Y23477D1*
X18278Y23385D1*
X18208Y23292D1*
X18058Y23142D1*
X17958Y23068D1*
X17865Y23031D1*
X17750Y23015D1*
X17000D1*
X16877Y23033D1*
X16785Y23072D1*
X16692Y23142D1*
X16568Y23267D1*
X16497Y23203D1*
X16392Y23136D1*
X16277Y23085D1*
X16157Y23053D1*
X16032Y23040D1*
X15908Y23046D1*
X15785Y23072D1*
X15668Y23116D1*
X15560Y23177D1*
X15461Y23254D1*
X15344Y23394D1*
X15243Y23277D1*
X15135Y23170D1*
Y22200D1*
X15127Y22075D1*
X15102Y21953D1*
X15061Y21835D1*
X15004Y21723D1*
X14921Y21605D1*
X14915Y21420D1*
Y18355D1*
X14907Y18230D1*
X14882Y18108D1*
X14841Y17990D1*
X14784Y17878D1*
X14714Y17776D1*
X14535Y17585D1*
Y14907D1*
X14610Y14799D1*
X14729Y14761D1*
X14837Y14698D1*
X14927Y14612D1*
X14997Y14508D1*
X15042Y14392D1*
X15060Y14250D1*
X15046Y14126D1*
X14999Y13998D1*
X15000Y12650D1*
X14984Y12526D1*
X14939Y12410D1*
X14854Y12296D1*
X14404Y11846D1*
X14305Y11770D1*
X14191Y11720D1*
X14050Y11700D1*
X11396Y11697D1*
X11278Y11655D1*
X11155Y11640D1*
X11112Y11644D1*
X12410Y10349D1*
X12529Y10311D1*
X12637Y10248D1*
X12727Y10162D1*
X12797Y10058D1*
X12842Y9942D1*
X12860Y9800D1*
X12846Y9676D1*
X12805Y9558D1*
X12739Y9452D1*
X12651Y9364D1*
X12546Y9297D1*
X12428Y9255D1*
X12305Y9240D1*
X12223Y9248D1*
X12139Y9102D1*
X12051Y9014D1*
X11946Y8947D1*
X11828Y8905D1*
X11705Y8890D1*
X11581Y8903D1*
X11452Y8949D1*
X10550Y8950D1*
X10426Y8966D1*
X10310Y9011D1*
X10196Y9096D1*
X6546Y12746D1*
X6470Y12845D1*
X6420Y12959D1*
X6400Y13100D1*
X6399Y15400D1*
X6356Y15517D1*
X6340Y15641D1*
X6352Y15765D1*
X6391Y15883D1*
X6455Y15990D1*
X6542Y16080D1*
X6646Y16149D1*
X6762Y16193D1*
X6886Y16210D1*
X7010Y16199D1*
X7129Y16161D1*
X7237Y16098D1*
X7327Y16012D1*
X7397Y15908D1*
X7442Y15792D1*
X7460Y15650D1*
X7446Y15526D1*
X7399Y15398D1*
X7400Y13310D1*
X8756Y11951D1*
X10759Y9948D1*
X11390Y9950D1*
X10129Y11214D1*
X10020Y11345D1*
X9970Y11459D1*
X9950Y11600D1*
X9949Y12901D1*
X9888Y13009D1*
X9855Y13129D1*
X9850Y13450D1*
X9849Y14000D1*
X9806Y14117D1*
X9790Y14241D1*
X9802Y14365D1*
X9841Y14483D1*
X9905Y14590D1*
X9992Y14680D1*
X10096Y14749D1*
X10212Y14793D1*
X10336Y14810D1*
X10460Y14799D1*
X10579Y14761D1*
X10629Y14731D1*
X10786Y14760D1*
X10910Y14749D1*
X10951Y14736D1*
X13077Y14735D1*
X13466Y15122D1*
X13465Y17576D1*
X13376Y17641D1*
X13286Y17728D1*
X13209Y17826D1*
X13145Y17933D1*
X13097Y18048D1*
X13064Y18169D1*
X13045Y18355D1*
Y22420D1*
X13053Y22545D1*
X13078Y22667D1*
X13119Y22785D1*
X13176Y22897D1*
X13259Y23015D1*
X13228Y23046D1*
X13105Y23072D1*
X12988Y23116D1*
X12880Y23177D1*
X12781Y23254D1*
X12681Y23366D1*
X12651Y23381D1*
X12571Y23285D1*
X12477Y23203D1*
X12372Y23136D1*
X12257Y23085D1*
X12137Y23053D1*
X12012Y23040D1*
X11888Y23046D1*
X11765Y23072D1*
X11638Y23121D1*
X11635Y22025D1*
Y19865D1*
X11660Y19700D1*
X11646Y19576D1*
X11605Y19458D1*
X11539Y19352D1*
X11484Y19290D1*
X12016D1*
X12140Y19282D1*
X12263Y19257D1*
X12381Y19216D1*
X12492Y19159D1*
X12595Y19089D1*
X12688Y19005D1*
X12769Y18910D1*
X12836Y18804D1*
X12888Y18691D1*
X12925Y18572D1*
X12946Y18449D1*
X12950Y18324D1*
X12938Y18199D1*
X12909Y18078D1*
X12864Y17961D1*
X12804Y17852D1*
X12730Y17751D1*
X12643Y17661D1*
X12545Y17584D1*
X12437Y17520D1*
X12322Y17472D1*
X12202Y17439D1*
X12016Y17420D1*
X6434D1*
X6427Y17275D1*
X6402Y17153D1*
X6361Y17035D1*
X6304Y16923D1*
X6234Y16821D1*
X6073Y16650D1*
X5461Y16039D1*
X5367Y15957D1*
X5263Y15888D1*
X5151Y15833D1*
X5032Y15794D1*
X4909Y15771D1*
X4675Y15765D1*
X1700D1*
X1575Y15773D1*
X1453Y15798D1*
X1335Y15839D1*
X1223Y15896D1*
X1121Y15966D1*
X950Y16127D1*
X793Y16285D1*
X623Y16337D1*
X625Y11625D1*
Y10402D1*
X748Y10410D1*
X872Y10403D1*
X995Y10381D1*
X1115Y10344D1*
X1229Y10293D1*
X1336Y10228D1*
X1434Y10151D1*
X1523Y10063D1*
X1600Y9965D1*
X1665Y9859D1*
X1717Y9745D1*
X1754Y9626D1*
X1777Y9503D1*
X1785Y9375D1*
X1777Y9250D1*
X1755Y9127D1*
X1718Y9008D1*
X1667Y8894D1*
X1602Y8787D1*
X1525Y8689D1*
X1461Y8625D1*
X1600Y8465D1*
X1665Y8359D1*
X1717Y8245D1*
X1754Y8126D1*
X1777Y8003D1*
X1785Y7875D1*
X1777Y7750D1*
X1755Y7627D1*
X1718Y7508D1*
X1667Y7394D1*
X1602Y7287D1*
X1525Y7189D1*
X1461Y7125D1*
X1600Y6965D1*
X1665Y6859D1*
X1717Y6745D1*
X1754Y6626D1*
X1777Y6503D1*
X1785Y6375D1*
X1777Y6250D1*
X1755Y6127D1*
X1718Y6008D1*
X1667Y5894D1*
X1602Y5787D1*
X1525Y5689D1*
X1437Y5601D1*
X1338Y5523D1*
X1231Y5459D1*
X1118Y5407D1*
X998Y5370D1*
X875Y5348D1*
X751Y5340D1*
X622Y5348D1*
X625Y3875D1*
Y2559D1*
X799Y2684D1*
X1024Y2791D1*
X1265Y2856D1*
X1514Y2876D1*
X1763Y2851D1*
X2002Y2781D1*
X2226Y2670D1*
X2425Y2519D1*
X2594Y2335D1*
X2727Y2124D1*
X2819Y1892D1*
X2868Y1647D1*
X2876Y1500D1*
X2854Y1251D1*
X2786Y1011D1*
X2677Y787D1*
X2561Y625D1*
X41785D1*
X41649Y786D1*
X41584Y893D1*
X41533Y1007D1*
X41495Y1126D1*
X41473Y1249D1*
X41465Y1373D1*
X41472Y1498D1*
X41495Y1621D1*
X41532Y1740D1*
X41583Y1854D1*
X41647Y1961D1*
X41724Y2060D1*
X41812Y2148D1*
X41910Y2226D1*
X42017Y2290D1*
X42131Y2342D1*
X42250Y2379D1*
X42373Y2402D1*
X42498Y2410D1*
X42622Y2403D1*
X42745Y2381D1*
X42865Y2344D1*
X42979Y2293D1*
X43086Y2228D1*
X43184Y2151D1*
X43273Y2063D1*
X43373Y1929D1*
X43474Y2060D1*
X43562Y2148D1*
X43660Y2226D1*
X43767Y2290D1*
X43881Y2342D1*
X44000Y2379D1*
X44123Y2402D1*
X44248Y2410D1*
X44372Y2403D1*
X44495Y2381D1*
X44615Y2344D1*
X44729Y2293D1*
X44836Y2228D1*
X44934Y2151D1*
X45023Y2063D1*
X45100Y1965D1*
X45165Y1859D1*
X45217Y1745D1*
X45254Y1626D1*
X45277Y1503D1*
X45285Y1375D1*
X45277Y1250D1*
X45255Y1127D1*
X45218Y1008D1*
X45167Y894D1*
X45102Y787D1*
X45025Y689D1*
X44961Y625D1*
X63441D1*
X35424Y14876D2*
X35393Y14755D1*
X35341Y14641D1*
X35271Y14538D1*
X35185Y14448D1*
X35084Y14374D1*
X34973Y14318D1*
X34853Y14281D1*
X34730Y14266D1*
X34605Y14271D1*
X34483Y14298D1*
X34367Y14345D1*
X34261Y14410D1*
X34168Y14493D1*
X34089Y14591D1*
X34029Y14700D1*
X33988Y14818D1*
X33967Y14941D1*
X33968Y15066D1*
X33990Y15189D1*
X34032Y15306D1*
X34093Y15415D1*
X34172Y15512D1*
X34267Y15594D1*
X34373Y15658D1*
X34489Y15704D1*
X34612Y15730D1*
X34736Y15734D1*
X34860Y15717D1*
X34979Y15680D1*
X35090Y15623D1*
X35190Y15548D1*
X35276Y15457D1*
X35345Y15353D1*
X35395Y15239D1*
X35426Y15118D1*
X35435Y15000D1*
X35424Y14876D1*
Y19876D2*
X35393Y19755D1*
X35341Y19641D1*
X35271Y19538D1*
X35185Y19448D1*
X35084Y19374D1*
X34973Y19318D1*
X34853Y19281D1*
X34730Y19266D1*
X34605Y19271D1*
X34483Y19298D1*
X34367Y19345D1*
X34261Y19410D1*
X34168Y19493D1*
X34089Y19591D1*
X34029Y19700D1*
X33988Y19818D1*
X33967Y19941D1*
X33968Y20066D1*
X33990Y20189D1*
X34032Y20306D1*
X34093Y20415D1*
X34172Y20512D1*
X34267Y20594D1*
X34373Y20658D1*
X34489Y20704D1*
X34612Y20730D1*
X34736Y20734D1*
X34860Y20717D1*
X34979Y20680D1*
X35090Y20623D1*
X35190Y20548D1*
X35276Y20457D1*
X35345Y20353D1*
X35395Y20239D1*
X35426Y20118D1*
X35435Y20000D1*
X35424Y19876D1*
X37174Y14876D2*
X37143Y14755D1*
X37091Y14641D1*
X37021Y14538D1*
X36935Y14448D1*
X36834Y14374D1*
X36723Y14318D1*
X36603Y14281D1*
X36480Y14266D1*
X36355Y14271D1*
X36233Y14298D1*
X36117Y14345D1*
X36011Y14410D1*
X35918Y14493D1*
X35839Y14591D1*
X35779Y14700D1*
X35738Y14818D1*
X35717Y14941D1*
X35718Y15066D1*
X35740Y15189D1*
X35782Y15306D1*
X35843Y15415D1*
X35922Y15512D1*
X36017Y15594D1*
X36123Y15658D1*
X36239Y15704D1*
X36362Y15730D1*
X36486Y15734D1*
X36610Y15717D1*
X36729Y15680D1*
X36840Y15623D1*
X36940Y15548D1*
X37026Y15457D1*
X37095Y15353D1*
X37145Y15239D1*
X37176Y15118D1*
X37185Y15000D1*
X37174Y14876D1*
X26549Y19876D2*
X26518Y19755D1*
X26466Y19641D1*
X26396Y19538D1*
X26310Y19448D1*
X26209Y19374D1*
X26098Y19318D1*
X25978Y19281D1*
X25855Y19266D1*
X25730Y19271D1*
X25608Y19298D1*
X25492Y19345D1*
X25386Y19410D1*
X25293Y19493D1*
X25214Y19591D1*
X25154Y19700D1*
X25105Y19868D1*
X24786Y20187D1*
X24810Y20000D1*
X24799Y19876D1*
X24768Y19755D1*
X24716Y19641D1*
X24646Y19538D1*
X24560Y19448D1*
X24459Y19374D1*
X24348Y19318D1*
X24228Y19281D1*
X24105Y19266D1*
X23980Y19271D1*
X23858Y19298D1*
X23742Y19345D1*
X23636Y19410D1*
X23543Y19493D1*
X23464Y19591D1*
X23404Y19700D1*
X23363Y19818D1*
X23342Y19941D1*
X23343Y20066D1*
X23365Y20189D1*
X23407Y20306D1*
X23468Y20415D1*
X23547Y20512D1*
X23642Y20594D1*
X23748Y20658D1*
X23864Y20704D1*
X23987Y20730D1*
X24111Y20734D1*
X24269Y20707D1*
X24210Y20781D1*
X24153Y20892D1*
X24122Y21012D1*
X24115Y21225D1*
Y24800D1*
X24128Y24924D1*
X24168Y25042D1*
X24229Y25147D1*
X24311Y25239D1*
X22647Y25238D1*
Y27053D1*
X24462D1*
X24463Y25390D1*
X24864Y25791D1*
X24821Y25922D1*
X24798Y26045D1*
X24793Y26170D1*
X24805Y26294D1*
X24834Y26416D1*
X24879Y26532D1*
X24940Y26641D1*
X25015Y26741D1*
X25103Y26829D1*
X25203Y26905D1*
X25312Y26966D1*
X25428Y27011D1*
X25549Y27041D1*
X25674Y27053D1*
X25799Y27048D1*
X25922Y27026D1*
X26040Y26987D1*
X26153Y26932D1*
X26256Y26863D1*
X26349Y26779D1*
X26430Y26684D1*
X26497Y26579D1*
X26549Y26465D1*
X26585Y26346D1*
X26607Y26146D1*
X26599Y26021D1*
X26573Y25899D1*
X26531Y25781D1*
X26473Y25671D1*
X26401Y25569D1*
X26315Y25478D1*
X26217Y25400D1*
X26110Y25336D1*
X26025Y25298D1*
X25285Y24550D1*
Y23968D1*
X25413Y24068D1*
X25522Y24128D1*
X25639Y24173D1*
X25760Y24202D1*
X25885Y24214D1*
X26010Y24210D1*
X26133Y24189D1*
X26252Y24152D1*
X26365Y24100D1*
X26471Y24033D1*
X26566Y23952D1*
X26650Y23859D1*
X26720Y23756D1*
X26777Y23645D1*
X26818Y23527D1*
X26842Y23404D1*
X26851Y23280D1*
X26842Y23155D1*
X26818Y23033D1*
X26777Y22915D1*
X26720Y22803D1*
X26650Y22701D1*
X26566Y22608D1*
X26470Y22527D1*
X26365Y22460D1*
X26252Y22407D1*
X26132Y22370D1*
X26009Y22350D1*
X25884Y22346D1*
X25760Y22358D1*
X25639Y22387D1*
X25522Y22432D1*
X25413Y22492D1*
X25287Y22590D1*
X25285Y21343D1*
X25895Y20732D1*
X25985Y20717D1*
X26104Y20680D1*
X26215Y20623D1*
X26315Y20548D1*
X26401Y20457D1*
X26470Y20353D1*
X26520Y20239D1*
X26551Y20118D1*
X26560Y20000D1*
X26549Y19876D1*
Y14876D2*
X26518Y14755D1*
X26466Y14641D1*
X26396Y14538D1*
X26310Y14448D1*
X26209Y14374D1*
X26098Y14318D1*
X25978Y14281D1*
X25855Y14266D1*
X25730Y14271D1*
X25608Y14298D1*
X25492Y14345D1*
X25386Y14410D1*
X25293Y14493D1*
X25214Y14591D1*
X25154Y14700D1*
X25113Y14818D1*
X25092Y14941D1*
X25093Y15066D1*
X25115Y15189D1*
X25157Y15306D1*
X25218Y15415D1*
X25297Y15512D1*
X25392Y15594D1*
X25498Y15658D1*
X25614Y15704D1*
X25737Y15730D1*
X25861Y15734D1*
X25985Y15717D1*
X26104Y15680D1*
X26215Y15623D1*
X26315Y15548D1*
X26401Y15457D1*
X26470Y15353D1*
X26520Y15239D1*
X26551Y15118D1*
X26560Y15000D1*
X26549Y14876D1*
X31924Y19876D2*
X31893Y19755D1*
X31841Y19641D1*
X31771Y19538D1*
X31685Y19448D1*
X31584Y19374D1*
X31473Y19318D1*
X31353Y19281D1*
X31230Y19266D1*
X31105Y19271D1*
X30983Y19298D1*
X30867Y19345D1*
X30761Y19410D1*
X30668Y19493D1*
X30589Y19591D1*
X30529Y19700D1*
X30488Y19818D1*
X30467Y19941D1*
X30468Y20066D1*
X30490Y20189D1*
X30532Y20306D1*
X30616Y20442D1*
X30615Y20621D1*
X30569Y20550D1*
X30484Y20459D1*
X30382Y20387D1*
X30267Y20339D1*
X30144Y20317D1*
X30019Y20321D1*
X29898Y20351D1*
X29786Y20406D1*
X29689Y20484D1*
X29610Y20581D1*
X29553Y20692D1*
X29522Y20812D1*
X29515Y21025D1*
Y25240D1*
X29147Y25238D1*
Y27053D1*
X30962D1*
Y25238D1*
X30684D1*
X30685Y24034D1*
X30842Y24128D1*
X30959Y24173D1*
X31080Y24202D1*
X31205Y24214D1*
X31330Y24210D1*
X31453Y24189D1*
X31572Y24152D1*
X31685Y24100D1*
X31791Y24033D1*
X31886Y23952D1*
X31970Y23859D1*
X32040Y23756D1*
X32097Y23645D1*
X32138Y23527D1*
X32162Y23404D1*
X32171Y23280D1*
X32162Y23155D1*
X32138Y23033D1*
X32097Y22915D1*
X32040Y22803D1*
X31970Y22701D1*
X31886Y22608D1*
X31790Y22527D1*
X31685Y22460D1*
X31572Y22407D1*
X31452Y22370D1*
X31329Y22350D1*
X31204Y22346D1*
X31080Y22358D1*
X30959Y22387D1*
X30842Y22432D1*
X30685Y22527D1*
Y21276D1*
X30729Y21347D1*
X30875Y21502D1*
X31186Y21814D1*
X31283Y21892D1*
X31395Y21948D1*
X31512Y21978D1*
X31725Y21985D1*
X35963Y21990D1*
X36215Y22250D1*
X36213Y22492D1*
X36112Y22566D1*
X36022Y22653D1*
X35945Y22751D1*
X35881Y22858D1*
X35832Y22973D1*
X35799Y23094D1*
X35783Y23218D1*
Y23343D1*
X35800Y23466D1*
X35833Y23587D1*
X35881Y23702D1*
X35945Y23809D1*
X36022Y23907D1*
X36112Y23994D1*
X36213Y24068D1*
X36322Y24128D1*
X36439Y24173D1*
X36560Y24202D1*
X36685Y24214D1*
X36810Y24210D1*
X36933Y24189D1*
X37052Y24152D1*
X37165Y24100D1*
X37271Y24033D1*
X37366Y23952D1*
X37450Y23859D1*
X37520Y23756D1*
X37577Y23645D1*
X37618Y23527D1*
X37642Y23404D1*
X37651Y23280D1*
X37642Y23155D1*
X37618Y23033D1*
X37577Y22915D1*
X37520Y22803D1*
X37450Y22701D1*
X37384Y22628D1*
X37385Y22000D1*
X37372Y21876D1*
X37332Y21758D1*
X37271Y21653D1*
X37125Y21498D1*
X36614Y20986D1*
X36517Y20908D1*
X36405Y20852D1*
X36288Y20822D1*
X36075Y20815D1*
X31837Y20810D1*
X31785Y20750D1*
Y20441D1*
X31845Y20353D1*
X31895Y20239D1*
X31926Y20118D1*
X31935Y20000D1*
X31924Y19876D1*
Y14876D2*
X31893Y14755D1*
X31841Y14641D1*
X31771Y14538D1*
X31685Y14448D1*
X31584Y14374D1*
X31473Y14318D1*
X31353Y14281D1*
X31230Y14266D1*
X31105Y14271D1*
X30983Y14298D1*
X30867Y14345D1*
X30761Y14410D1*
X30668Y14493D1*
X30589Y14591D1*
X30529Y14700D1*
X30488Y14818D1*
X30467Y14941D1*
X30468Y15066D1*
X30490Y15189D1*
X30532Y15306D1*
X30593Y15415D1*
X30672Y15512D1*
X30767Y15594D1*
X30873Y15658D1*
X30989Y15704D1*
X31112Y15730D1*
X31236Y15734D1*
X31360Y15717D1*
X31479Y15680D1*
X31590Y15623D1*
X31690Y15548D1*
X31776Y15457D1*
X31845Y15353D1*
X31895Y15239D1*
X31926Y15118D1*
X31935Y15000D1*
X31924Y14876D1*
X24799D2*
X24768Y14755D1*
X24716Y14641D1*
X24646Y14538D1*
X24560Y14448D1*
X24459Y14374D1*
X24348Y14318D1*
X24228Y14281D1*
X24105Y14266D1*
X23980Y14271D1*
X23858Y14298D1*
X23742Y14345D1*
X23636Y14410D1*
X23543Y14493D1*
X23464Y14591D1*
X23404Y14700D1*
X23363Y14818D1*
X23342Y14941D1*
X23343Y15066D1*
X23365Y15189D1*
X23407Y15306D1*
X23468Y15415D1*
X23547Y15512D1*
X23642Y15594D1*
X23748Y15658D1*
X23864Y15704D1*
X23987Y15730D1*
X24111Y15734D1*
X24235Y15717D1*
X24354Y15680D1*
X24465Y15623D1*
X24565Y15548D1*
X24651Y15457D1*
X24720Y15353D1*
X24770Y15239D1*
X24801Y15118D1*
X24810Y15000D1*
X24799Y14876D1*
X33674D2*
X33643Y14755D1*
X33591Y14641D1*
X33521Y14538D1*
X33435Y14448D1*
X33334Y14374D1*
X33223Y14318D1*
X33103Y14281D1*
X32980Y14266D1*
X32855Y14271D1*
X32733Y14298D1*
X32617Y14345D1*
X32511Y14410D1*
X32418Y14493D1*
X32339Y14591D1*
X32279Y14700D1*
X32238Y14818D1*
X32217Y14941D1*
X32218Y15066D1*
X32240Y15189D1*
X32282Y15306D1*
X32343Y15415D1*
X32422Y15512D1*
X32517Y15594D1*
X32623Y15658D1*
X32739Y15704D1*
X32862Y15730D1*
X32986Y15734D1*
X33110Y15717D1*
X33229Y15680D1*
X33340Y15623D1*
X33440Y15548D1*
X33526Y15457D1*
X33595Y15353D1*
X33645Y15239D1*
X33676Y15118D1*
X33685Y15000D1*
X33674Y14876D1*
X48549D2*
X48518Y14755D1*
X48466Y14641D1*
X48396Y14538D1*
X48310Y14448D1*
X48209Y14374D1*
X48098Y14318D1*
X47978Y14281D1*
X47855Y14266D1*
X47730Y14271D1*
X47608Y14298D1*
X47492Y14345D1*
X47386Y14410D1*
X47293Y14493D1*
X47214Y14591D1*
X47154Y14700D1*
X47113Y14818D1*
X47092Y14941D1*
X47093Y15066D1*
X47115Y15189D1*
X47157Y15306D1*
X47218Y15415D1*
X47297Y15512D1*
X47392Y15594D1*
X47498Y15658D1*
X47614Y15704D1*
X47737Y15730D1*
X47861Y15734D1*
X47985Y15717D1*
X48104Y15680D1*
X48215Y15623D1*
X48315Y15548D1*
X48401Y15457D1*
X48470Y15353D1*
X48520Y15239D1*
X48551Y15118D1*
X48560Y15000D1*
X48549Y14876D1*
Y19876D2*
X48518Y19755D1*
X48466Y19641D1*
X48429Y19586D1*
X48970Y19585D1*
X48904Y19700D1*
X48863Y19818D1*
X48842Y19941D1*
X48843Y20066D1*
X48865Y20189D1*
X48907Y20306D1*
X48968Y20415D1*
X49047Y20512D1*
X49142Y20594D1*
X49248Y20658D1*
X49364Y20704D1*
X49487Y20730D1*
X49611Y20734D1*
X49735Y20717D1*
X49854Y20680D1*
X49965Y20623D1*
X50065Y20548D1*
X50151Y20457D1*
X50220Y20353D1*
X50270Y20239D1*
X50301Y20118D1*
X50310Y20000D1*
X50299Y19876D1*
X50268Y19755D1*
X50216Y19641D1*
X50111Y19501D1*
X50098Y19261D1*
X50057Y19143D1*
X49991Y19038D1*
X49628Y18672D1*
X49530Y18594D1*
X49417Y18542D1*
X49306Y18518D1*
X48375Y18515D1*
X47200D1*
X47076Y18530D1*
X46959Y18572D1*
X46863Y18634D1*
X46622Y18872D1*
X46544Y18970D1*
X46492Y19083D1*
X46468Y19194D1*
X46465Y20125D1*
Y20832D1*
X46426Y20868D1*
X45650Y20865D1*
X43150D1*
X43026Y20880D1*
X42909Y20922D1*
X42813Y20984D1*
X42122Y21672D1*
X42044Y21770D1*
X41992Y21883D1*
X41968Y21994D1*
X41965Y22925D1*
Y27100D1*
X41980Y27224D1*
X42022Y27341D1*
X42084Y27437D1*
X42422Y27778D1*
X42520Y27856D1*
X42633Y27908D1*
X42744Y27932D1*
X43675Y27935D1*
X44446D1*
X44570Y27920D1*
X44687Y27878D1*
X44783Y27816D1*
X45443Y27160D1*
X45561Y27041D1*
X45674Y27053D1*
X45799Y27048D1*
X45922Y27026D1*
X46040Y26987D1*
X46153Y26932D1*
X46256Y26863D1*
X46349Y26779D1*
X46430Y26684D1*
X46497Y26579D1*
X46549Y26465D1*
X46585Y26346D1*
X46607Y26146D1*
X46599Y26021D1*
X46573Y25899D1*
X46531Y25781D1*
X46473Y25671D1*
X46401Y25569D1*
X46315Y25478D1*
X46217Y25400D1*
X46110Y25336D1*
X45995Y25287D1*
X45874Y25255D1*
X45750Y25240D1*
X45625Y25241D1*
X45502Y25260D1*
X45382Y25296D1*
X45269Y25347D1*
X45163Y25414D1*
X45068Y25495D1*
X44984Y25588D1*
X44914Y25691D1*
X44860Y25804D1*
X44821Y25922D1*
X44798Y26045D1*
X44793Y26170D1*
X44804Y26283D1*
X44463Y26626D1*
X44462Y25238D1*
X44083D1*
X44085Y23642D1*
X44850Y22885D1*
X44971D1*
X44904Y23094D1*
X44887Y23218D1*
Y23343D1*
X44904Y23466D1*
X44937Y23587D1*
X44986Y23702D1*
X45049Y23809D1*
X45127Y23907D1*
X45216Y23994D1*
X45317Y24068D1*
X45427Y24128D1*
X45543Y24173D1*
X45665Y24202D1*
X45789Y24214D1*
X45914Y24210D1*
X46037Y24189D1*
X46156Y24152D1*
X46270Y24100D1*
X46375Y24033D1*
X46470Y23952D1*
X46554Y23859D1*
X46625Y23756D1*
X46681Y23645D1*
X46722Y23527D1*
X46747Y23404D1*
X46755Y23280D1*
X46747Y23155D1*
X46722Y23033D1*
X46665Y22884D1*
X46940Y22885D1*
X46901Y22973D1*
X46868Y23094D1*
X46851Y23218D1*
Y23343D1*
X46868Y23466D1*
X46901Y23587D1*
X46950Y23702D1*
X47013Y23809D1*
X47091Y23907D1*
X47196Y24006D1*
X47199Y24780D1*
Y25510D1*
X47130Y25588D1*
X47060Y25691D1*
X47005Y25804D1*
X46966Y25922D1*
X46944Y26045D1*
X46939Y26170D1*
X46950Y26294D1*
X46979Y26416D1*
X47025Y26532D1*
X47085Y26641D1*
X47161Y26741D1*
X47249Y26829D1*
X47348Y26905D1*
X47457Y26966D1*
X47574Y27011D1*
X47695Y27041D1*
X47819Y27053D1*
X47944Y27048D1*
X48067Y27026D1*
X48186Y26987D1*
X48298Y26932D1*
X48402Y26863D1*
X48495Y26779D1*
X48576Y26684D1*
X48643Y26579D1*
X48695Y26465D1*
X48731Y26346D1*
X48753Y26146D1*
X48745Y26021D1*
X48719Y25899D1*
X48677Y25781D1*
X48619Y25671D1*
X48546Y25569D1*
X48460Y25478D1*
X48372Y25407D1*
X48369Y24209D1*
Y24010D1*
X48518Y23859D1*
X48589Y23756D1*
X48645Y23645D1*
X48686Y23527D1*
X48711Y23404D1*
X48719Y23280D1*
X48711Y23155D1*
X48686Y23033D1*
X48629Y22884D1*
X48916Y22885D1*
X48915Y24300D1*
X48928Y24424D1*
X48968Y24542D1*
X49029Y24647D1*
X49175Y24802D1*
X49469Y25104D1*
Y25241D1*
X49147Y25238D1*
Y27053D1*
X50962D1*
Y26065D1*
X52614Y24414D1*
X52692Y24317D1*
X52791Y24128D1*
X52957Y24185D1*
X53613Y24840D1*
X53615Y25604D1*
X53505Y25804D1*
X53466Y25922D1*
X53444Y26045D1*
X53439Y26170D1*
X53450Y26294D1*
X53479Y26416D1*
X53525Y26532D1*
X53585Y26641D1*
X53661Y26741D1*
X53749Y26829D1*
X53848Y26905D1*
X53957Y26966D1*
X54074Y27011D1*
X54195Y27041D1*
X54319Y27053D1*
X54444Y27048D1*
X54567Y27026D1*
X54686Y26987D1*
X54798Y26932D1*
X54902Y26863D1*
X54995Y26779D1*
X55076Y26684D1*
X55143Y26579D1*
X55195Y26465D1*
X55231Y26346D1*
X55253Y26146D1*
X55245Y26021D1*
X55219Y25899D1*
X55177Y25781D1*
X55119Y25671D1*
X55046Y25569D1*
X54960Y25478D1*
X54863Y25400D1*
X54786Y25354D1*
X54785Y24600D1*
X54772Y24476D1*
X54732Y24358D1*
X54671Y24253D1*
X54525Y24098D1*
X54053Y23626D1*
X54086Y23527D1*
X54111Y23404D1*
X54119Y23280D1*
X54111Y23155D1*
X54086Y23033D1*
X54045Y22915D1*
X54001Y22828D1*
X54415Y23250D1*
Y23700D1*
X54428Y23824D1*
X54468Y23942D1*
X54529Y24047D1*
X54675Y24202D1*
X55711Y25238D1*
X55647D1*
Y27053D1*
X57462D1*
Y26065D1*
X57914Y25614D1*
X57992Y25517D1*
X58048Y25405D1*
X58078Y25288D1*
X58085Y25075D1*
X58091Y24128D1*
X58207Y24173D1*
X58329Y24202D1*
X58453Y24214D1*
X58578Y24210D1*
X58701Y24189D1*
X58820Y24152D1*
X58934Y24100D1*
X59039Y24033D1*
X59132Y23959D1*
X60315Y25150D1*
X60309Y25414D1*
X60213Y25495D1*
X60130Y25588D1*
X60060Y25691D1*
X60005Y25804D1*
X59966Y25922D1*
X59944Y26045D1*
X59939Y26170D1*
X59950Y26294D1*
X59979Y26416D1*
X60025Y26532D1*
X60085Y26641D1*
X60161Y26741D1*
X60249Y26829D1*
X60348Y26905D1*
X60457Y26966D1*
X60574Y27011D1*
X60695Y27041D1*
X60819Y27053D1*
X60944Y27048D1*
X61067Y27026D1*
X61186Y26987D1*
X61298Y26932D1*
X61402Y26863D1*
X61495Y26779D1*
X61576Y26684D1*
X61643Y26579D1*
X61695Y26465D1*
X61731Y26346D1*
X61753Y26146D1*
X61745Y26021D1*
X61719Y25899D1*
X61677Y25781D1*
X61619Y25671D1*
X61546Y25569D1*
X61485Y25504D1*
Y24900D1*
X61472Y24776D1*
X61432Y24658D1*
X61371Y24553D1*
X61225Y24398D1*
X59694Y22866D1*
X59597Y22788D1*
X59485Y22732D1*
X59368Y22702D1*
X59214Y22695D1*
X59134Y22608D1*
X59039Y22527D1*
X58934Y22460D1*
X58820Y22407D1*
X58701Y22370D1*
X58578Y22350D1*
X58453Y22346D1*
X58329Y22358D1*
X58207Y22387D1*
X58087Y22434D1*
X58085Y20712D1*
X58193Y20730D1*
X58317Y20734D1*
X58441Y20717D1*
X58560Y20680D1*
X58671Y20623D1*
X58771Y20548D1*
X58857Y20457D1*
X58926Y20353D1*
X58976Y20239D1*
X59007Y20118D1*
X59016Y20000D1*
X59005Y19876D1*
X58974Y19755D1*
X58922Y19641D1*
X58852Y19538D1*
X58766Y19448D1*
X58666Y19374D1*
X58554Y19318D1*
X58435Y19281D1*
X58311Y19266D1*
X58186Y19271D1*
X58075Y19295D1*
X58034Y19161D1*
X57971Y19053D1*
X57825Y18898D1*
X57714Y18786D1*
X57617Y18708D1*
X57505Y18652D1*
X57388Y18622D1*
X57175Y18615D1*
X55200D1*
X55076Y18628D1*
X54958Y18668D1*
X54853Y18729D1*
X54698Y18875D1*
X54250Y19315D1*
X52700D1*
X52576Y19328D1*
X52458Y19368D1*
X52350Y19431D1*
X52259Y19516D1*
X52187Y19618D1*
X52139Y19733D1*
X52117Y19856D1*
X52121Y19981D1*
X52151Y20102D1*
X52206Y20214D1*
X52284Y20311D1*
X52381Y20390D1*
X52492Y20447D1*
X52612Y20478D1*
X52825Y20485D1*
X54500D1*
X54624Y20472D1*
X54742Y20432D1*
X54847Y20371D1*
X55002Y20225D1*
X55450Y19785D1*
X55876D1*
X55842Y19941D1*
X55843Y20066D1*
X55865Y20189D1*
X55907Y20306D1*
X55991Y20442D1*
X55990Y21926D1*
X55154Y21086D1*
X55057Y21008D1*
X54945Y20952D1*
X54828Y20922D1*
X54615Y20915D1*
X48437Y20910D1*
X48410Y20875D1*
Y20441D1*
X48470Y20353D1*
X48520Y20239D1*
X48551Y20118D1*
X48560Y20000D1*
X48549Y19876D1*
X46799Y14876D2*
X46768Y14755D1*
X46716Y14641D1*
X46646Y14538D1*
X46560Y14448D1*
X46459Y14374D1*
X46348Y14318D1*
X46228Y14281D1*
X46105Y14266D1*
X45980Y14271D1*
X45858Y14298D1*
X45742Y14345D1*
X45636Y14410D1*
X45543Y14493D1*
X45464Y14591D1*
X45404Y14700D1*
X45363Y14818D1*
X45342Y14941D1*
X45343Y15066D1*
X45365Y15189D1*
X45407Y15306D1*
X45468Y15415D1*
X45547Y15512D1*
X45642Y15594D1*
X45748Y15658D1*
X45864Y15704D1*
X45987Y15730D1*
X46111Y15734D1*
X46235Y15717D1*
X46354Y15680D1*
X46465Y15623D1*
X46565Y15548D1*
X46651Y15457D1*
X46720Y15353D1*
X46770Y15239D1*
X46801Y15118D1*
X46810Y15000D1*
X46799Y14876D1*
X57299D2*
X57268Y14755D1*
X57216Y14641D1*
X57146Y14538D1*
X57060Y14448D1*
X56959Y14374D1*
X56848Y14318D1*
X56728Y14281D1*
X56605Y14266D1*
X56480Y14271D1*
X56358Y14298D1*
X56242Y14345D1*
X56136Y14410D1*
X56043Y14493D1*
X55964Y14591D1*
X55904Y14700D1*
X55863Y14818D1*
X55842Y14941D1*
X55843Y15066D1*
X55865Y15189D1*
X55907Y15306D1*
X55968Y15415D1*
X56047Y15512D1*
X56142Y15594D1*
X56248Y15658D1*
X56364Y15704D1*
X56487Y15730D1*
X56611Y15734D1*
X56735Y15717D1*
X56854Y15680D1*
X56965Y15623D1*
X57065Y15548D1*
X57151Y15457D1*
X57220Y15353D1*
X57270Y15239D1*
X57301Y15118D1*
X57310Y15000D1*
X57299Y14876D1*
X59005D2*
X58974Y14755D1*
X58922Y14641D1*
X58852Y14538D1*
X58766Y14448D1*
X58666Y14374D1*
X58554Y14318D1*
X58435Y14281D1*
X58311Y14266D1*
X58186Y14271D1*
X58064Y14298D1*
X57948Y14345D1*
X57842Y14410D1*
X57749Y14493D1*
X57671Y14591D1*
X57610Y14700D1*
X57569Y14818D1*
X57548Y14941D1*
X57549Y15066D1*
X57571Y15189D1*
X57613Y15306D1*
X57674Y15415D1*
X57753Y15512D1*
X57848Y15594D1*
X57954Y15658D1*
X58070Y15704D1*
X58193Y15730D1*
X58317Y15734D1*
X58441Y15717D1*
X58560Y15680D1*
X58671Y15623D1*
X58771Y15548D1*
X58857Y15457D1*
X58926Y15353D1*
X58976Y15239D1*
X59007Y15118D1*
X59016Y15000D1*
X59005Y14876D1*
X52049D2*
X52018Y14755D1*
X51966Y14641D1*
X51896Y14538D1*
X51810Y14448D1*
X51709Y14374D1*
X51598Y14318D1*
X51478Y14281D1*
X51355Y14266D1*
X51230Y14271D1*
X51108Y14298D1*
X50992Y14345D1*
X50886Y14410D1*
X50793Y14493D1*
X50714Y14591D1*
X50654Y14700D1*
X50613Y14818D1*
X50592Y14941D1*
X50593Y15066D1*
X50615Y15189D1*
X50657Y15306D1*
X50718Y15415D1*
X50797Y15512D1*
X50892Y15594D1*
X50998Y15658D1*
X51114Y15704D1*
X51237Y15730D1*
X51361Y15734D1*
X51485Y15717D1*
X51604Y15680D1*
X51715Y15623D1*
X51815Y15548D1*
X51901Y15457D1*
X51970Y15353D1*
X52020Y15239D1*
X52051Y15118D1*
X52060Y15000D1*
X52049Y14876D1*
X50299D2*
X50268Y14755D1*
X50216Y14641D1*
X50146Y14538D1*
X50060Y14448D1*
X49959Y14374D1*
X49848Y14318D1*
X49728Y14281D1*
X49605Y14266D1*
X49480Y14271D1*
X49358Y14298D1*
X49242Y14345D1*
X49136Y14410D1*
X49043Y14493D1*
X48964Y14591D1*
X48904Y14700D1*
X48863Y14818D1*
X48842Y14941D1*
X48843Y15066D1*
X48865Y15189D1*
X48907Y15306D1*
X48968Y15415D1*
X49047Y15512D1*
X49142Y15594D1*
X49248Y15658D1*
X49364Y15704D1*
X49487Y15730D1*
X49611Y15734D1*
X49735Y15717D1*
X49854Y15680D1*
X49965Y15623D1*
X50065Y15548D1*
X50151Y15457D1*
X50220Y15353D1*
X50270Y15239D1*
X50301Y15118D1*
X50310Y15000D1*
X50299Y14876D1*
X28807Y23155D2*
X28782Y23033D1*
X28741Y22915D1*
X28684Y22803D1*
X28614Y22701D1*
X28530Y22608D1*
X28435Y22527D1*
X28329Y22460D1*
X28216Y22407D1*
X28097Y22370D1*
X27974Y22350D1*
X27849Y22346D1*
X27724Y22358D1*
X27603Y22387D1*
X27486Y22432D1*
X27377Y22492D1*
X27276Y22566D1*
X27186Y22653D1*
X27109Y22751D1*
X27045Y22858D1*
X26997Y22973D1*
X26964Y23094D1*
X26947Y23218D1*
Y23343D1*
X26964Y23466D1*
X26997Y23587D1*
X27046Y23702D1*
X27109Y23809D1*
X27187Y23907D1*
X27292Y24006D1*
X27295Y24780D1*
Y25425D1*
X27213Y25495D1*
X27130Y25588D1*
X27060Y25691D1*
X27005Y25804D1*
X26966Y25922D1*
X26944Y26045D1*
X26939Y26170D1*
X26950Y26294D1*
X26979Y26416D1*
X27025Y26532D1*
X27085Y26641D1*
X27161Y26741D1*
X27249Y26829D1*
X27348Y26905D1*
X27457Y26966D1*
X27574Y27011D1*
X27695Y27041D1*
X27819Y27053D1*
X27944Y27048D1*
X28067Y27026D1*
X28186Y26987D1*
X28298Y26932D1*
X28402Y26863D1*
X28495Y26779D1*
X28576Y26684D1*
X28643Y26579D1*
X28695Y26465D1*
X28731Y26346D1*
X28753Y26146D1*
X28745Y26021D1*
X28719Y25899D1*
X28677Y25781D1*
X28619Y25671D1*
X28546Y25569D1*
X28463Y25481D1*
X28465Y24006D1*
X28530Y23952D1*
X28614Y23859D1*
X28685Y23756D1*
X28741Y23645D1*
X28782Y23527D1*
X28807Y23404D1*
X28815Y23280D1*
X28807Y23155D1*
X34127D2*
X34102Y23033D1*
X34061Y22915D1*
X34004Y22803D1*
X33934Y22701D1*
X33850Y22608D1*
X33755Y22527D1*
X33649Y22460D1*
X33536Y22407D1*
X33417Y22370D1*
X33294Y22350D1*
X33169Y22346D1*
X33044Y22358D1*
X32923Y22387D1*
X32806Y22432D1*
X32697Y22492D1*
X32596Y22566D1*
X32506Y22653D1*
X32429Y22751D1*
X32365Y22858D1*
X32317Y22973D1*
X32284Y23094D1*
X32267Y23218D1*
Y23343D1*
X32284Y23466D1*
X32317Y23587D1*
X32366Y23702D1*
X32429Y23809D1*
X32507Y23907D1*
X32596Y23994D1*
X32697Y24068D1*
X32807Y24128D1*
X32923Y24173D1*
X33080Y24206D1*
X33817Y24944D1*
X33815Y25407D1*
X33713Y25495D1*
X33630Y25588D1*
X33560Y25691D1*
X33505Y25804D1*
X33466Y25922D1*
X33444Y26045D1*
X33439Y26170D1*
X33450Y26294D1*
X33479Y26416D1*
X33525Y26532D1*
X33585Y26641D1*
X33661Y26741D1*
X33749Y26829D1*
X33848Y26905D1*
X33957Y26966D1*
X34074Y27011D1*
X34195Y27041D1*
X34319Y27053D1*
X34444Y27048D1*
X34567Y27026D1*
X34686Y26987D1*
X34798Y26932D1*
X34902Y26863D1*
X34995Y26779D1*
X35076Y26684D1*
X35143Y26579D1*
X35195Y26465D1*
X35231Y26346D1*
X35253Y26146D1*
X35245Y26021D1*
X35219Y25899D1*
X35177Y25781D1*
X35119Y25671D1*
X35046Y25569D1*
X34985Y25504D1*
Y24700D1*
X34972Y24576D1*
X34932Y24458D1*
X34871Y24353D1*
X34725Y24198D1*
X34093Y23565D1*
X34127Y23404D1*
X34135Y23280D1*
X34127Y23155D1*
X39411Y22698D2*
X39330Y22608D1*
X39235Y22527D1*
X39129Y22460D1*
X39016Y22407D1*
X38897Y22370D1*
X38774Y22350D1*
X38649Y22346D1*
X38524Y22358D1*
X38403Y22387D1*
X38286Y22432D1*
X38177Y22492D1*
X38076Y22566D1*
X37986Y22653D1*
X37909Y22751D1*
X37845Y22858D1*
X37797Y22973D1*
X37764Y23094D1*
X37747Y23218D1*
Y23343D1*
X37764Y23466D1*
X37797Y23587D1*
X37846Y23702D1*
X37909Y23809D1*
X37987Y23907D1*
X38076Y23994D1*
X38177Y24068D1*
X38287Y24128D1*
X38403Y24173D1*
X38525Y24202D1*
X38649Y24214D1*
X38774Y24210D1*
X38897Y24189D1*
X39016Y24152D1*
X39130Y24100D1*
X39235Y24033D1*
X39330Y23952D1*
X39411Y23862D1*
X39443Y23870D1*
X40415Y24850D1*
X40414Y25347D1*
X40309Y25414D1*
X40213Y25495D1*
X40130Y25588D1*
X40060Y25691D1*
X40005Y25804D1*
X39966Y25922D1*
X39944Y26045D1*
X39939Y26170D1*
X39950Y26294D1*
X39979Y26416D1*
X40025Y26532D1*
X40085Y26641D1*
X40161Y26741D1*
X40249Y26829D1*
X40348Y26905D1*
X40457Y26966D1*
X40574Y27011D1*
X40695Y27041D1*
X40819Y27053D1*
X40944Y27048D1*
X41067Y27026D1*
X41186Y26987D1*
X41298Y26932D1*
X41402Y26863D1*
X41495Y26779D1*
X41576Y26684D1*
X41643Y26579D1*
X41695Y26465D1*
X41731Y26346D1*
X41753Y26146D1*
X41745Y26021D1*
X41719Y25899D1*
X41677Y25781D1*
X41585Y25623D1*
Y24600D1*
X41572Y24476D1*
X41532Y24358D1*
X41471Y24253D1*
X41325Y24098D1*
X40094Y22866D1*
X39997Y22788D1*
X39885Y22732D1*
X39768Y22702D1*
X39555Y22695D1*
X39410D1*
X35772Y27053D2*
X37462D1*
Y25238D1*
X35647D1*
Y27053D1*
X35772D1*
X39599Y26021D2*
X39573Y25899D1*
X39531Y25781D1*
X39473Y25671D1*
X39401Y25569D1*
X39315Y25478D1*
X39217Y25400D1*
X39110Y25336D1*
X38995Y25287D1*
X38874Y25255D1*
X38750Y25240D1*
X38625Y25241D1*
X38502Y25260D1*
X38382Y25296D1*
X38269Y25347D1*
X38163Y25414D1*
X38068Y25495D1*
X37984Y25588D1*
X37914Y25691D1*
X37860Y25804D1*
X37821Y25922D1*
X37798Y26045D1*
X37793Y26170D1*
X37805Y26294D1*
X37834Y26416D1*
X37879Y26532D1*
X37940Y26641D1*
X38015Y26741D1*
X38103Y26829D1*
X38203Y26905D1*
X38312Y26966D1*
X38428Y27011D1*
X38549Y27041D1*
X38674Y27053D1*
X38799Y27048D1*
X38922Y27026D1*
X39040Y26987D1*
X39153Y26932D1*
X39256Y26863D1*
X39349Y26779D1*
X39430Y26684D1*
X39497Y26579D1*
X39549Y26465D1*
X39585Y26346D1*
X39607Y26146D1*
X39599Y26021D1*
X53099D2*
X53073Y25899D1*
X53031Y25781D1*
X52973Y25671D1*
X52901Y25569D1*
X52815Y25478D1*
X52717Y25400D1*
X52610Y25336D1*
X52495Y25287D1*
X52374Y25255D1*
X52250Y25240D1*
X52125Y25241D1*
X52002Y25260D1*
X51882Y25296D1*
X51769Y25347D1*
X51663Y25414D1*
X51568Y25495D1*
X51484Y25588D1*
X51414Y25691D1*
X51360Y25804D1*
X51321Y25922D1*
X51298Y26045D1*
X51293Y26170D1*
X51305Y26294D1*
X51334Y26416D1*
X51379Y26532D1*
X51440Y26641D1*
X51515Y26741D1*
X51603Y26829D1*
X51703Y26905D1*
X51812Y26966D1*
X51928Y27011D1*
X52049Y27041D1*
X52174Y27053D1*
X52299Y27048D1*
X52422Y27026D1*
X52540Y26987D1*
X52653Y26932D1*
X52756Y26863D1*
X52849Y26779D1*
X52930Y26684D1*
X52997Y26579D1*
X53049Y26465D1*
X53085Y26346D1*
X53107Y26146D1*
X53099Y26021D1*
X65180Y5500D2*
X65143Y5253D1*
X65070Y5014D1*
X64963Y4789D1*
X64823Y4582D1*
X64654Y4398D1*
X64460Y4240D1*
X64245Y4114D1*
X64013Y4020D1*
X63771Y3962D1*
X63522Y3940D1*
X63272Y3955D1*
X63028Y4007D1*
X62794Y4095D1*
X62576Y4216D1*
X62378Y4368D1*
X62204Y4548D1*
X62059Y4751D1*
X61946Y4974D1*
X61867Y5211D1*
X61823Y5457D1*
X61817Y5706D1*
X61847Y5954D1*
X61914Y6195D1*
X62016Y6423D1*
X62150Y6634D1*
X62314Y6822D1*
X62504Y6984D1*
X62716Y7117D1*
X62945Y7216D1*
X63186Y7281D1*
X63435Y7309D1*
X63684Y7300D1*
X63930Y7254D1*
X64166Y7173D1*
X64387Y7057D1*
X64589Y6910D1*
X64767Y6735D1*
X64918Y6536D1*
X65037Y6316D1*
X65122Y6081D1*
X65172Y5837D1*
X65185Y5625D1*
X65180Y5500D1*
X59599Y26021D2*
X59573Y25899D1*
X59531Y25781D1*
X59473Y25671D1*
X59401Y25569D1*
X59315Y25478D1*
X59217Y25400D1*
X59110Y25336D1*
X58995Y25287D1*
X58874Y25255D1*
X58750Y25240D1*
X58625Y25241D1*
X58502Y25260D1*
X58382Y25296D1*
X58269Y25347D1*
X58163Y25414D1*
X58068Y25495D1*
X57984Y25588D1*
X57914Y25691D1*
X57860Y25804D1*
X57821Y25922D1*
X57798Y26045D1*
X57793Y26170D1*
X57805Y26294D1*
X57834Y26416D1*
X57879Y26532D1*
X57940Y26641D1*
X58015Y26741D1*
X58103Y26829D1*
X58203Y26905D1*
X58312Y26966D1*
X58428Y27011D1*
X58549Y27041D1*
X58674Y27053D1*
X58799Y27048D1*
X58922Y27026D1*
X59040Y26987D1*
X59153Y26932D1*
X59256Y26863D1*
X59349Y26779D1*
X59430Y26684D1*
X59497Y26579D1*
X59549Y26465D1*
X59585Y26346D1*
X59607Y26146D1*
X59599Y26021D1*
X33099D2*
X33073Y25899D1*
X33031Y25781D1*
X32973Y25671D1*
X32901Y25569D1*
X32815Y25478D1*
X32717Y25400D1*
X32610Y25336D1*
X32495Y25287D1*
X32374Y25255D1*
X32250Y25240D1*
X32125Y25241D1*
X32002Y25260D1*
X31882Y25296D1*
X31769Y25347D1*
X31663Y25414D1*
X31568Y25495D1*
X31484Y25588D1*
X31414Y25691D1*
X31360Y25804D1*
X31321Y25922D1*
X31298Y26045D1*
X31293Y26170D1*
X31305Y26294D1*
X31334Y26416D1*
X31379Y26532D1*
X31440Y26641D1*
X31515Y26741D1*
X31603Y26829D1*
X31703Y26905D1*
X31812Y26966D1*
X31928Y27011D1*
X32049Y27041D1*
X32174Y27053D1*
X32299Y27048D1*
X32422Y27026D1*
X32540Y26987D1*
X32653Y26932D1*
X32756Y26863D1*
X32849Y26779D1*
X32930Y26684D1*
X32997Y26579D1*
X33049Y26465D1*
X33085Y26346D1*
X33107Y26146D1*
X33099Y26021D1*
X65180Y26750D2*
X65143Y26503D1*
X65070Y26264D1*
X64963Y26039D1*
X64823Y25832D1*
X64654Y25648D1*
X64460Y25490D1*
X64245Y25364D1*
X64013Y25270D1*
X63771Y25212D1*
X63522Y25190D1*
X63272Y25205D1*
X63028Y25257D1*
X62794Y25345D1*
X62576Y25466D1*
X62378Y25618D1*
X62204Y25798D1*
X62059Y26001D1*
X61946Y26224D1*
X61867Y26461D1*
X61823Y26707D1*
X61817Y26956D1*
X61847Y27204D1*
X61914Y27445D1*
X62016Y27673D1*
X62150Y27884D1*
X62314Y28072D1*
X62504Y28234D1*
X62716Y28367D1*
X62945Y28466D1*
X63186Y28531D1*
X63435Y28559D1*
X63684Y28550D1*
X63930Y28504D1*
X64166Y28423D1*
X64387Y28307D1*
X64589Y28160D1*
X64767Y27985D1*
X64918Y27786D1*
X65037Y27566D1*
X65122Y27331D1*
X65172Y27087D1*
X65185Y26875D1*
X65180Y26750D1*
X4650Y6754D2*
Y11002D1*
X3148D1*
X3024Y11018D1*
X2908Y11063D1*
X2775Y11168D1*
X2712Y11193D1*
X2606Y11258D1*
X2517Y11345D1*
X2449Y11450D1*
X2406Y11567D1*
X2390Y11691D1*
X2402Y11815D1*
X2441Y11933D1*
X2505Y12040D1*
X2592Y12130D1*
X2696Y12199D1*
X2812Y12243D1*
X2936Y12260D1*
X3060Y12249D1*
X3179Y12211D1*
X3287Y12148D1*
X3377Y12062D1*
X3419Y12000D1*
X4238Y12002D1*
X2777Y13466D1*
X2712Y13493D1*
X2606Y13558D1*
X2517Y13645D1*
X2449Y13750D1*
X2406Y13867D1*
X2390Y13991D1*
X2402Y14115D1*
X2441Y14233D1*
X2505Y14340D1*
X2592Y14430D1*
X2696Y14499D1*
X2812Y14543D1*
X2936Y14560D1*
X3060Y14549D1*
X3179Y14511D1*
X3287Y14448D1*
X3377Y14362D1*
X3447Y14258D1*
X3476Y14182D1*
X5504Y12154D1*
X5580Y12055D1*
X5630Y11941D1*
X5650Y11800D1*
Y6748D1*
X5692Y6642D1*
X5710Y6500D1*
X5696Y6376D1*
X5655Y6258D1*
X5589Y6152D1*
X5501Y6064D1*
X5396Y5997D1*
X5278Y5955D1*
X5155Y5940D1*
X5031Y5953D1*
X4912Y5993D1*
X4806Y6058D1*
X4717Y6145D1*
X4649Y6250D1*
X4606Y6367D1*
X4590Y6491D1*
X4602Y6615D1*
X4651Y6750D1*
X2768Y13474D2*
X2712Y13493D1*
X2606Y13558D1*
X2517Y13645D1*
X2449Y13750D1*
X2406Y13867D1*
X2390Y13991D1*
X2402Y14115D1*
X2441Y14233D1*
X2505Y14340D1*
X2592Y14430D1*
X2696Y14499D1*
X2812Y14543D1*
X2936Y14560D1*
X3060Y14549D1*
X3179Y14511D1*
X3287Y14448D1*
X3377Y14362D1*
X3447Y14258D1*
X3476Y14182D1*
X35150Y18104D2*
X35149Y18600D1*
X35106Y18717D1*
X35090Y18841D1*
X35102Y18965D1*
X35141Y19083D1*
X35205Y19190D1*
X35292Y19280D1*
X35396Y19349D1*
X35512Y19393D1*
X35636Y19410D1*
X35760Y19399D1*
X35879Y19361D1*
X35987Y19298D1*
X36077Y19212D1*
X36147Y19108D1*
X36192Y18992D1*
X36210Y18850D1*
X36196Y18726D1*
X36149Y18598D1*
X36150Y18104D1*
X36192Y17992D1*
X36210Y17850D1*
X36196Y17726D1*
X36155Y17608D1*
X36089Y17502D1*
X36001Y17414D1*
X35896Y17347D1*
X35778Y17305D1*
X35655Y17290D1*
X35531Y17303D1*
X35412Y17343D1*
X35306Y17408D1*
X35217Y17495D1*
X35149Y17600D1*
X35106Y17717D1*
X35090Y17841D1*
X35102Y17965D1*
X35151Y18100D1*
D33*
X20300Y24100D3*
D34*
Y26069D3*
D33*
Y19800D3*
D34*
Y21769D3*
D39*
X38075Y15625D3*
D40*
Y19975D3*
D39*
X44450D3*
D40*
Y15625D3*
D41*
X42500Y1375D3*
X1000Y17300D3*
Y19100D3*
X22000Y16250D3*
X20150D3*
X750Y4900D3*
X44250Y1375D3*
X750Y9375D3*
Y7875D3*
Y6375D3*
D14*
X13980Y18355D3*
X12016D3*
D42*
X34700Y15000D3*
Y20000D3*
X36450Y15000D3*
Y20000D3*
X25825D3*
Y15000D3*
X31200Y20000D3*
Y15000D3*
X24075D3*
Y20000D3*
X32950Y15000D3*
Y20000D3*
X47825Y15000D3*
Y20000D3*
D14*
X3520Y18355D3*
X5484D3*
D42*
X46075Y20000D3*
Y15000D3*
X56575D3*
Y20000D3*
X58281Y15000D3*
Y20000D3*
X51325D3*
Y15000D3*
X49575D3*
Y20000D3*
D14*
X27880Y23280D3*
X25916D3*
X33200D3*
X31236D3*
X38680D3*
X36716D3*
X51220D3*
X53184D3*
X56520D3*
X58484D3*
X45820D3*
X47784D3*
D43*
X1150Y23850D3*
D23*
X4500Y25850D3*
X3830Y23850D3*
X3160Y25850D3*
X2490Y23850D3*
X1820Y25850D3*
X5170Y23850D3*
X5840Y25850D3*
X6510Y23850D3*
X7180Y25850D3*
X7850Y23850D3*
D43*
X10650D3*
D23*
X14000Y25850D3*
X13330Y23850D3*
X12660Y25850D3*
X11990Y23850D3*
X11320Y25850D3*
X14670Y23850D3*
X15340Y25850D3*
X16010Y23850D3*
X16680Y25850D3*
X17350Y23850D3*
D46*
X36554Y26146D3*
D47*
X38700D3*
X40846D3*
D46*
X50054D3*
D47*
X52200D3*
X54346D3*
D50*
X63500Y5625D3*
D46*
X56554Y26146D3*
D47*
X58700D3*
X60846D3*
D46*
X43554D3*
D47*
X45700D3*
X47846D3*
D46*
X30054D3*
D47*
X32200D3*
X34346D3*
D46*
X23554D3*
D47*
X25700D3*
X27846D3*
D50*
X63500Y26875D3*
Y10625D3*
Y21875D3*
G36*
X2950Y23500D2*
X2750Y23300D1*
X2150D1*
X2050Y23400D1*
Y24300D1*
Y24550D1*
X2600Y25100D1*
Y26100D1*
X2900Y26400D1*
X3450D1*
X3650Y26200D1*
Y25200D1*
X3300Y24850D1*
X2950Y24550D1*
D1*
Y23500D1*
G37*
G36*
X16800Y23650D2*
X17000Y23450D1*
X17750D1*
X17900Y23600D1*
Y24200D1*
Y25200D1*
X17500Y25600D1*
Y26300D1*
Y27500D1*
X17000Y28000D1*
X16550Y28450D1*
X7250D1*
X6850Y28050D1*
Y26600D1*
Y26300D1*
X6700Y26150D1*
Y25550D1*
X7150Y25100D1*
X7450Y24800D1*
Y24300D1*
X7350Y24200D1*
Y23500D1*
X7550Y23300D1*
X8150D1*
X8350Y23500D1*
Y24150D1*
Y24550D1*
Y25000D1*
Y25300D1*
Y26900D1*
X8850Y27400D1*
X12850D1*
X15750D1*
X16050Y27100D1*
X16200Y26950D1*
Y26050D1*
Y25000D1*
Y24650D1*
X16550Y24300D1*
X16800Y24050D1*
D1*
Y23650D1*
G37*
M02*
