G04 DipTrace 2.4.0.2*
%INSSPS.GTP*%
%MOIN*%
%ADD14C,0.1*%
%ADD29R,0.0354X0.0236*%
%ADD30R,0.126X0.063*%
%ADD31R,0.063X0.0354*%
%ADD32R,0.0276X0.0512*%
%ADD35R,0.2244X0.0787*%
%ADD36R,0.063X0.098*%
%ADD37R,0.098X0.063*%
%ADD38R,0.0512X0.0276*%
%ADD45R,0.0354X0.0315*%
%ADD48R,0.0787X0.0236*%
%ADD49R,0.0236X0.0787*%
%ADD52R,0.0531X0.0157*%
%ADD53R,0.0472X0.0598*%
%ADD55R,0.1555X0.0591*%
%ADD56R,0.3819X0.4094*%
%ADD58R,0.1043X0.1181*%
%ADD59R,0.0472X0.0161*%
%ADD61R,0.06X0.02*%
%ADD63R,0.0571X0.0118*%
%ADD64R,0.0591X0.1555*%
%ADD65R,0.4094X0.3819*%
%FSLAX44Y44*%
G04*
G70*
G90*
G75*
G01*
%LNTopPaste*%
%LPD*%
D29*
X7545Y19205D3*
Y19795D3*
X9955Y19080D3*
Y19670D3*
D30*
X16563Y21688D3*
X14437D3*
X6438D3*
X4312D3*
X13063D3*
X10937D3*
X2938D3*
X812D3*
D31*
X39200Y17250D3*
Y18391D3*
D32*
X27200Y17500D3*
X27944D3*
D31*
X43325Y17890D3*
Y16749D3*
D32*
X53315Y17500D3*
X52571D3*
X3593Y14015D3*
X4337D3*
X3593Y11640D3*
X4337D3*
X29945Y17495D3*
X29201D3*
X54460Y17500D3*
X55204D3*
D35*
X39750Y8375D3*
X35931D3*
X39750Y2875D3*
X35931D3*
X24750D3*
X28569D3*
Y8375D3*
X24750D3*
D36*
X15000Y7375D3*
Y8753D3*
Y2125D3*
Y3503D3*
D37*
X5186Y5064D3*
X6564D3*
D29*
X4375Y3091D3*
Y2500D3*
D38*
X40200Y15615D3*
Y14871D3*
D32*
X42200Y18625D3*
X41456D3*
D37*
X15250Y14250D3*
X16628D3*
D32*
X12995Y11395D3*
X12251D3*
X13000Y16000D3*
X12256D3*
D36*
X8500Y3503D3*
Y2125D3*
D38*
X10370Y14880D3*
Y15624D3*
X7370Y15620D3*
Y14876D3*
D32*
X8377Y19750D3*
X9125D3*
X16250Y12875D3*
X15502D3*
D38*
X7376Y17374D3*
Y16626D3*
D32*
X7500Y18250D3*
X8248D3*
X7876Y10124D3*
X8624D3*
X7876Y12374D3*
X8624D3*
X9999Y18250D3*
X9251D3*
X8623Y13250D3*
X7875D3*
D38*
X1375Y12375D3*
Y13123D3*
X2375Y12375D3*
Y13123D3*
D32*
X7877Y11000D3*
X8625D3*
X15502Y12125D3*
X16250D3*
D45*
X35593Y13395D3*
Y14143D3*
X34805Y13769D3*
X36450Y14125D3*
Y13377D3*
X37237Y13751D3*
X27950Y16000D3*
Y16748D3*
X27163Y16374D3*
X29163Y16748D3*
Y16000D3*
X29950Y16374D3*
X28950Y19500D3*
Y20248D3*
X28163Y19874D3*
D48*
X40200Y17750D3*
Y17250D3*
Y16750D3*
Y16250D3*
X42326D3*
Y16750D3*
Y17250D3*
Y17750D3*
D45*
X45825Y14125D3*
Y13377D3*
X46612Y13751D3*
D49*
X8125Y14125D3*
X8625D3*
X9125D3*
X9625D3*
Y16251D3*
X9125D3*
X8625D3*
X8125D3*
D45*
X48200Y13375D3*
Y14123D3*
X47413Y13749D3*
X53362Y16002D3*
Y16750D3*
X52575Y16376D3*
X54450Y16750D3*
Y16002D3*
X55237Y16376D3*
X54325Y19500D3*
Y20248D3*
X53538Y19874D3*
D52*
X3125Y13125D3*
Y12869D3*
Y12613D3*
Y12357D3*
X4818D3*
Y12613D3*
Y12869D3*
Y13125D3*
X3125Y10875D3*
Y10619D3*
Y10363D3*
Y10107D3*
X4818D3*
Y10363D3*
Y10619D3*
Y10875D3*
D53*
X33305Y1004D3*
Y4445D3*
X31254Y1004D3*
Y4445D3*
X31199Y10066D3*
Y6625D3*
X33250Y10066D3*
Y6625D3*
D55*
X22375Y2250D3*
Y4250D3*
D56*
X18320Y3250D3*
D55*
X22250Y7375D3*
Y9375D3*
D56*
X18195Y8375D3*
D58*
X6000Y3000D3*
D59*
X4945Y3750D3*
Y3250D3*
Y2750D3*
Y2250D3*
X7055D3*
Y2750D3*
Y3250D3*
Y3750D3*
D14*
X60900Y6300D3*
X24950Y14000D3*
X38325Y13750D3*
X61200Y23000D3*
X44450Y13750D3*
X57450Y14125D3*
X20200Y17700D3*
X22700Y23000D3*
X50450Y14125D3*
X32075Y14000D3*
X29825Y18625D3*
X55075D3*
X23550Y24300D3*
X43400Y24050D3*
D61*
X11445Y14820D3*
Y15320D3*
Y14320D3*
Y13820D3*
X13805D3*
Y14320D3*
Y14820D3*
Y15320D3*
D63*
X11750Y12900D3*
Y12703D3*
Y12506D3*
Y12309D3*
Y12113D3*
X13482D3*
Y12309D3*
Y12506D3*
Y12703D3*
Y12900D3*
D14*
X6875Y12375D3*
Y11000D3*
Y13750D3*
X5500Y15850D3*
X15375Y15750D3*
X4000Y5125D3*
X8500Y4875D3*
X22375Y750D3*
X23000Y10750D3*
X15000Y10125D3*
X17250Y12250D3*
X3500Y15800D3*
X16250Y18250D3*
X64850Y13150D3*
X46950Y12250D3*
X36300Y12500D3*
D64*
X10750Y1750D3*
X12750D3*
D65*
X11750Y5805D3*
M02*
