M48
INCH
T01C0.02
T02C0.03
T03C0.0354
T04C0.042
T05C0.0472
T06C0.05
T07C0.0591
T08C0.06
T09C0.14
%
T01
X+012300Y+009800
X+011700Y+009450
X+011850Y+011395
X+011150Y+012200
X+010800Y+014200
X+010350Y+014250
X+011850Y+016000
X+014500Y+014250
X+015000Y+012150
X+017400Y+014250
X+015450Y+020650
X+011100Y+019700
X+006900Y+015650
X+007500Y+014450
X+004950Y+014100
X+002950Y+014000
X+004050Y+012200
X+002950Y+011700
X+007274Y+010124
X+005150Y+006500
X+007300Y+005100
X+006000Y+001850
X+008500Y+001200
X+010000Y+001750
X+015000Y+004500
X+015000Y+006450
X+022250Y+006600
X+022300Y+005250
X+030000Y+002900
X+034654Y+001004
X+030100Y+008350
X+033250Y+010550
X+035650Y+017850
X+035650Y+018850
X+039950Y+018391
X+040875Y+018625
X+043325Y+018500
X+040200Y+014250
X+028600Y+017500
X+030100Y+020900
X+052700Y+019900
X+053900Y+017500
X+001850Y+020800
T02
X+034700Y+015000
X+032950Y+015000
X+031200Y+015000
X+031200Y+020000
X+032950Y+020000
X+034700Y+020000
X+036450Y+020000
X+036450Y+015000
X+046075Y+015000
X+047825Y+015000
X+049575Y+015000
X+051325Y+015000
X+051325Y+020000
X+049575Y+020000
X+047825Y+020000
X+046075Y+020000
X+056575Y+020000
X+058281Y+020000
X+058281Y+015000
X+056575Y+015000
X+025825Y+015000
X+024075Y+015000
X+024075Y+020000
X+025825Y+020000
T03
X+020300Y+024100
X+020300Y+026069
X+020300Y+021769
X+020300Y+019800
T04
X+013980Y+018355
X+012016Y+018355
X+005484Y+018355
X+003520Y+018355
X+025916Y+023280
X+027880Y+023280
X+031236Y+023280
X+033200Y+023280
X+036716Y+023280
X+038680Y+023280
X+045820Y+023280
X+047784Y+023280
X+051220Y+023280
X+053184Y+023280
X+056520Y+023280
X+058484Y+023280
T05
X+038075Y+015625
X+038075Y+019975
X+044450Y+019975
X+044450Y+015625
T06
X+001150Y+023850
X+002490Y+023850
X+003830Y+023850
X+005170Y+023850
X+006510Y+023850
X+007850Y+023850
X+007180Y+025850
X+005840Y+025850
X+004500Y+025850
X+003160Y+025850
X+001820Y+025850
X+010650Y+023850
X+011990Y+023850
X+013330Y+023850
X+014670Y+023850
X+016010Y+023850
X+017350Y+023850
X+016680Y+025850
X+015340Y+025850
X+014000Y+025850
X+012660Y+025850
X+011320Y+025850
T07
X+036554Y+026146
X+038700Y+026146
X+040846Y+026146
X+043554Y+026146
X+045700Y+026146
X+047846Y+026146
X+050054Y+026146
X+052200Y+026146
X+054346Y+026146
X+056554Y+026146
X+058700Y+026146
X+060846Y+026146
X+034346Y+026146
X+032200Y+026146
X+030054Y+026146
X+027846Y+026146
X+025700Y+026146
X+023554Y+026146
T08
X+042500Y+001375
X+044250Y+001375
X+022000Y+016250
X+020150Y+016250
X+001000Y+017300
X+001000Y+019100
X+000750Y+009375
X+000750Y+007875
X+000750Y+006375
X+000750Y+004900
T09
X+064500Y+001500
X+063500Y+005625
X+063500Y+010625
X+063500Y+021875
X+063500Y+026875
X+064500Y+031000
X+001500Y+031000
X+001500Y+001500
T00
M30
