G04 DipTrace Beta 2.9.0.1*
G04 OPA541APBreakout.GTS*
%MOIN*%
G04 #@! TF.FileFunction,Soldermask,Top*
G04 #@! TF.Part,Single*
%ADD29C,0.055118*%
%ADD33C,0.083*%
%ADD34R,0.083X0.083*%
%ADD35R,0.059181X0.035559*%
%ADD36R,0.153669X0.104457*%
%ADD37R,0.035559X0.059181*%
%ADD38C,0.128*%
%ADD39R,0.133984X0.070992*%
%ADD40R,0.043433X0.031622*%
%ADD41R,0.031622X0.043433*%
%FSLAX26Y26*%
G04*
G70*
G90*
G75*
G01*
G04 TopMask*
%LPD*%
D41*
X100000Y430000D3*
X159055D3*
D40*
X1109528Y634528D3*
Y575472D3*
D39*
X1355000Y400000D3*
X1142402D3*
X1356299Y131000D3*
X1143701D3*
X856299D3*
X643701D3*
X855000Y400000D3*
X642402D3*
D38*
X100000Y75000D3*
X1900000D3*
X1000000D3*
X500000D3*
X1500000D3*
X1000000Y200000D3*
D37*
X1034803Y575000D3*
X960000D3*
D36*
X915000Y930000D3*
Y727244D3*
X1085000Y930000D3*
Y727244D3*
D35*
X100000Y357402D3*
Y282598D3*
D37*
X45000Y500000D3*
X119803D3*
D34*
X80000Y630000D3*
D33*
X415000Y830000D3*
X348000Y630000D3*
X281000Y830000D3*
X214000Y630000D3*
X147000Y830000D3*
X482000Y630000D3*
X549000Y830000D3*
X616000Y630000D3*
X683000Y830000D3*
X750000Y630000D3*
D34*
X1250000D3*
D33*
X1585000Y830000D3*
X1518000Y630000D3*
X1451000Y830000D3*
X1384000Y630000D3*
X1317000Y830000D3*
X1652000Y630000D3*
X1719000Y830000D3*
X1786000Y630000D3*
X1853000Y830000D3*
X1920000Y630000D3*
D29*
X220000Y50000D3*
X55000Y925000D3*
X1945000D3*
M02*
