G04 DipTrace Beta 2.9.0.1*
G04 OPA541APBreakout.GBL*
%MOIN*%
G04 #@! TF.FileFunction,Copper,L2,Bot*
G04 #@! TF.Part,Single*
G04 #@! TA.AperFunction,Conductor,NotC*
%ADD13C,0.05*%
%ADD14C,0.02*%
%ADD15C,0.012992*%
G04 #@! TA.AperFunction,ViaPad*
%ADD16C,0.025*%
G04 #@! TA.AperFunction,ComponentPad*
%ADD23C,0.12*%
%ADD27R,0.075X0.075*%
%ADD28C,0.075*%
%FSLAX26Y26*%
G04*
G70*
G90*
G75*
G01*
G04 Bottom*
%LPD*%
X1719000Y830000D2*
D13*
Y776000D1*
X1780000Y715000D1*
Y636000D1*
X1786000Y630000D1*
Y354000D1*
X1895000Y245000D1*
Y80000D1*
X1900000Y75000D1*
X1000000Y200000D2*
D14*
Y75000D1*
X975000Y370000D2*
D15*
X985000D1*
X1000000Y355000D1*
X1010000D1*
X1025000Y370000D1*
Y400000D1*
X1015000D1*
X1000000Y415000D1*
X990000D1*
X975000Y400000D1*
X985000D1*
X1000000Y385000D1*
Y415000D2*
D13*
Y875000D1*
X940000Y935000D1*
X100000D1*
X50000Y885000D1*
Y660000D1*
X80000Y630000D1*
X683000Y830000D2*
Y792000D1*
X750000Y725000D1*
Y630000D1*
Y370000D1*
X820000Y300000D1*
X1210000D1*
X1310000Y400000D1*
X1417500D1*
D16*
X1440000D1*
X1530000D2*
X1500000D1*
X1470000D1*
X1440000D1*
X214000Y630000D2*
D13*
Y674000D1*
X280000Y740000D1*
Y829000D1*
X281000Y830000D1*
X1384000Y630000D2*
Y674000D1*
X1450000Y740000D1*
Y829000D1*
X1451000Y830000D1*
D16*
X1000000Y385000D3*
X1025000Y400000D3*
X975000Y370000D3*
X1025000D3*
X975000Y400000D3*
X1440000D3*
X1470000D3*
X1500000D3*
X1530000D3*
X1000000Y415000D3*
Y355000D3*
D23*
X100000Y75000D3*
X1900000D3*
X1000000D3*
X500000D3*
X1500000D3*
X1000000Y200000D3*
D27*
X80000Y630000D3*
D28*
X415000Y830000D3*
X348000Y630000D3*
X281000Y830000D3*
X214000Y630000D3*
X147000Y830000D3*
X482000Y630000D3*
X549000Y830000D3*
X616000Y630000D3*
X683000Y830000D3*
X750000Y630000D3*
D27*
X1250000D3*
D28*
X1585000Y830000D3*
X1518000Y630000D3*
X1451000Y830000D3*
X1384000Y630000D3*
X1317000Y830000D3*
X1652000Y630000D3*
X1719000Y830000D3*
X1786000Y630000D3*
X1853000Y830000D3*
X1920000Y630000D3*
G36*
X980000Y440000D2*
X950000Y410000D1*
Y360000D1*
X965000Y345000D1*
X1035000D1*
X1050000Y360000D1*
Y410000D1*
X1020000Y440000D1*
X1015000D1*
X980000D1*
G37*
G36*
X1415000Y425000D2*
X1545000D1*
X1555000Y415000D1*
Y385000D1*
X1545000Y375000D1*
X1415000D1*
X1405000Y385000D1*
Y415000D1*
X1415000Y425000D1*
G37*
M02*
