M48
INCH
T01C0.02
T02C0.05
T03C0.06
%
T01
X+010000Y+003850
X+010250Y+004000
X+010000Y+004150
X+009750Y+004000
X+009750Y+003700
X+010000Y+003550
X+010250Y+003700
X+014400Y+004000
X+014700Y+004000
X+015000Y+004000
X+015300Y+004000
T02
X+000800Y+006300
X+002140Y+006300
X+003480Y+006300
X+004820Y+006300
X+006160Y+006300
X+007500Y+006300
X+006830Y+008300
X+005490Y+008300
X+004150Y+008300
X+002810Y+008300
X+001470Y+008300
X+012500Y+006300
X+013840Y+006300
X+015180Y+006300
X+016520Y+006300
X+017860Y+006300
X+019200Y+006300
X+018530Y+008300
X+017190Y+008300
X+015850Y+008300
X+014510Y+008300
X+013170Y+008300
T03
X+001000Y+000750
X+005000Y+000750
X+010000Y+000750
X+010000Y+002000
X+015000Y+000750
X+019000Y+000750
T00
M30
